<?xml version="1.0" encoding="UTF-8" standalone="no"?>
<!-- Created with Inkscape (http://www.inkscape.org/) -->

<svg
   version="1.1"
   id="svg1926"
   width="869.29199"
   height="793.70135"
   viewBox="0 0 869.29199 793.70135"
   sodipodi:docname="charge-suspendue.svg"
   inkscape:version="1.2.2 (732a01da63, 2022-12-09)"
   xmlns:inkscape="http://www.inkscape.org/namespaces/inkscape"
   xmlns:sodipodi="http://sodipodi.sourceforge.net/DTD/sodipodi-0.dtd"
   xmlns="http://www.w3.org/2000/svg"
   xmlns:svg="http://www.w3.org/2000/svg">
  <defs
     id="defs1930">
    <clipPath
       clipPathUnits="userSpaceOnUse"
       id="clipPath1946">
      <path
         d="M 0,595.276 H 651.969 V 0 H 0 Z"
         id="path1944" />
    </clipPath>
    <clipPath
       clipPathUnits="userSpaceOnUse"
       id="clipPath1962">
      <path
         d="M 0,595.276 H 651.969 V 0 H 0 Z"
         id="path1960" />
    </clipPath>
  </defs>
  <sodipodi:namedview
     id="namedview1928"
     pagecolor="#ffffff"
     bordercolor="#000000"
     borderopacity="0.25"
     inkscape:showpageshadow="2"
     inkscape:pageopacity="0.0"
     inkscape:pagecheckerboard="0"
     inkscape:deskcolor="#d1d1d1"
     showgrid="false"
     inkscape:zoom="1.0495131"
     inkscape:cx="434.48718"
     inkscape:cy="397.8035"
     inkscape:window-width="1920"
     inkscape:window-height="991"
     inkscape:window-x="2391"
     inkscape:window-y="-9"
     inkscape:window-maximized="1"
     inkscape:current-layer="g1934">
    <inkscape:page
       x="0"
       y="0"
       id="page1932"
       width="869.29199"
       height="793.70135" />
  </sodipodi:namedview>
  <g
     id="g1934"
     inkscape:groupmode="layer"
     inkscape:label="Page 1"
     transform="matrix(1.3333333,0,0,-1.3333333,0,793.70133)">
    <g
       id="g1936"
       transform="translate(43.3045,46.0355)">
      <path
         d="M 0,0 282.67,507.569 565.339,0 Z"
         style="fill:#fbbc09;fill-opacity:1;fill-rule:nonzero;stroke:none"
         id="path1938" />
    </g>
    <g
       id="g1940">
      <g
         id="g1942"
         clip-path="url(#clipPath1946)">
        <g
           id="g1948"
           transform="translate(69.2132,61.5423)">
          <path
             d="M 0,0 H 513.523 L 256.761,461.048 Z m 539.451,-31.014 c -0.007,-0.001 -0.014,-0.001 -0.021,0 H -25.909 c -5.343,0 -10.282,2.956 -12.953,7.754 -2.673,4.797 -2.673,10.709 0,15.507 l 282.67,507.568 c 2.671,4.798 7.609,7.754 12.953,7.754 5.345,0 10.282,-2.956 12.954,-7.754 l 282.297,-506.9 c 1.516,-2.425 2.397,-5.317 2.397,-8.422 0,-8.564 -6.697,-15.507 -14.958,-15.507"
             style="fill:#231f20;fill-opacity:1;fill-rule:nonzero;stroke:none"
             id="path1950" />
        </g>
        <g
           id="g1952"
           transform="translate(69.2132,61.5423)">
          <path
             d="M 0,0 H 513.523 L 256.761,461.048 Z m 539.451,-31.014 c -0.007,-0.001 -0.014,-0.001 -0.021,0 H -25.909 c -5.343,0 -10.282,2.956 -12.953,7.754 -2.673,4.797 -2.673,10.709 0,15.507 l 282.67,507.568 c 2.671,4.798 7.609,7.754 12.953,7.754 5.345,0 10.282,-2.956 12.954,-7.754 l 282.297,-506.9 c 1.516,-2.425 2.397,-5.317 2.397,-8.422 0,-8.564 -6.697,-15.507 -14.958,-15.507 z"
             style="fill:none;stroke:#231f20;stroke-width:2.538;stroke-linecap:butt;stroke-linejoin:miter;stroke-miterlimit:10;stroke-dasharray:none;stroke-opacity:1"
             id="path1954" />
        </g>
      </g>
    </g>
    <g
       id="g1956">
      <g
         id="g1958"
         clip-path="url(#clipPath1962)">
        <g
           id="g1964"
           transform="translate(43.304,23.2601)">
          <path
             d="m 0,0 c -7.897,0 -15.233,4.366 -19.145,11.393 -3.849,6.908 -3.849,15.493 0.001,22.404 l 282.669,507.567 c 3.912,7.027 11.248,11.392 19.144,11.392 7.897,0 15.233,-4.365 19.147,-11.392 L 584.033,34.605 c 2.207,-3.597 3.371,-7.746 3.371,-12.011 0,-12.288 -9.621,-22.318 -21.549,-22.588 L 565.81,0 h -0.461 z"
             style="fill:none;stroke:#231f20;stroke-width:2;stroke-linecap:butt;stroke-linejoin:miter;stroke-miterlimit:10;stroke-dasharray:none;stroke-opacity:1"
             id="path1966" />
        </g>
        <g
           id="g1968"
           transform="translate(295.4808,243.6321)">
          <path
             d="M 0,0 -69.388,-33.648 V -89.102 L 0,-62.486 Z"
             style="fill:#231f20;fill-opacity:1;fill-rule:nonzero;stroke:none"
             id="path1970" />
        </g>
        <g
           id="g1972"
           transform="translate(295.4808,243.6321)">
          <path
             d="M 0,0 -69.388,-33.648 V -89.102 L 0,-62.486 Z"
             style="fill:none;stroke:#231f20;stroke-width:4.41;stroke-linecap:butt;stroke-linejoin:round;stroke-miterlimit:10;stroke-dasharray:none;stroke-opacity:1"
             id="path1974" />
        </g>
        <g
           id="g1976"
           transform="translate(227.6644,148.8597)">
          <path
             d="M 0,0 70.159,26.705 199.022,-49.842 137.584,-72.933 Z"
             style="fill:#231f20;fill-opacity:1;fill-rule:nonzero;stroke:none"
             id="path1978" />
        </g>
        <g
           id="g1980"
           transform="translate(227.6644,148.8597)">
          <path
             d="M 0,0 70.159,26.705 199.022,-49.842 137.584,-72.933 Z"
             style="fill:none;stroke:#231f20;stroke-width:4.41;stroke-linecap:butt;stroke-linejoin:round;stroke-miterlimit:10;stroke-dasharray:none;stroke-opacity:1"
             id="path1982" />
        </g>
        <g
           id="g1984"
           transform="translate(301.0716,243.6321)">
          <path
             d="m 0,0 v -62.486 l 127.82,-76.738 v 50.475 z"
             style="fill:#231f20;fill-opacity:1;fill-rule:nonzero;stroke:none"
             id="path1986" />
        </g>
        <g
           id="g1988"
           transform="translate(301.0716,243.6321)">
          <path
             d="m 0,0 v -62.486 l 127.82,-76.738 v 50.475 z"
             style="fill:none;stroke:#231f20;stroke-width:4.41;stroke-linecap:butt;stroke-linejoin:round;stroke-miterlimit:10;stroke-dasharray:none;stroke-opacity:1"
             id="path1990" />
        </g>
        <g
           id="g1992"
           transform="translate(331.407,225.9329)">
          <path
             d="m 0,0 -0.171,-66.101 -74.81,-28.526 10.739,-5.693 74.626,27.984 v 65.183 z"
             style="fill:#fbbc09;fill-opacity:1;fill-rule:nonzero;stroke:none"
             id="path1994" />
        </g>
        <g
           id="g1996"
           transform="translate(331.407,225.9329)">
          <path
             d="m 0,0 -0.171,-66.101 -74.81,-28.526 10.739,-5.693 74.626,27.984 v 65.183 z"
             style="fill:none;stroke:#fbbc09;stroke-width:2.205;stroke-linecap:butt;stroke-linejoin:miter;stroke-miterlimit:10;stroke-dasharray:none;stroke-opacity:1"
             id="path1998" />
        </g>
        <g
           id="g2000"
           transform="translate(390.0028,185.5609)">
          <path
             d="m 0,0 -0.084,-60.605 -74.199,-26.024 11.297,-5.988 73.336,26.458 v 59.79 z"
             style="fill:#fbbc09;fill-opacity:1;fill-rule:nonzero;stroke:none"
             id="path2002" />
        </g>
        <g
           id="g2004"
           transform="translate(390.0028,185.5609)">
          <path
             d="m 0,0 -0.084,-60.605 -74.199,-26.024 11.297,-5.988 73.336,26.458 v 59.79 z"
             style="fill:none;stroke:#fbbc09;stroke-width:2.205;stroke-linecap:butt;stroke-linejoin:miter;stroke-miterlimit:10;stroke-dasharray:none;stroke-opacity:1"
             id="path2006" />
        </g>
        <g
           id="g2008"
           transform="translate(263.7845,228.7962)">
          <path
             d="M 0,0 57.729,153.56 60.985,151.48 11.505,5.578 Z"
             style="fill:#231f20;fill-opacity:1;fill-rule:nonzero;stroke:none"
             id="path2010" />
        </g>
        <g
           id="g2012"
           transform="translate(263.7845,228.7962)">
          <path
             d="M 0,0 57.729,153.56 60.985,151.48 11.505,5.578 Z"
             style="fill:none;stroke:#231f20;stroke-width:0.827;stroke-linecap:butt;stroke-linejoin:round;stroke-miterlimit:10;stroke-dasharray:none;stroke-opacity:1"
             id="path2014" />
        </g>
        <g
           id="g2016"
           transform="translate(317.4988,232.015)">
          <path
             d="M 0,0 4.015,150.341 7.271,148.261 4.94,-3.429 Z"
             style="fill:#231f20;fill-opacity:1;fill-rule:nonzero;stroke:none"
             id="path2018" />
        </g>
        <g
           id="g2020"
           transform="translate(317.4988,232.015)">
          <path
             d="M 0,0 4.015,150.341 7.271,148.261 4.94,-3.429 Z"
             style="fill:none;stroke:#231f20;stroke-width:1.102;stroke-linecap:butt;stroke-linejoin:round;stroke-miterlimit:10;stroke-dasharray:none;stroke-opacity:1"
             id="path2022" />
        </g>
        <g
           id="g2024"
           transform="translate(344.4002,385.9998)">
          <path
             d="M 0,0 C -0.772,6.305 -5.756,8.615 -9.525,13.495 H -9.79 c -0.907,1.05 -1.418,2.496 -1.924,3.947 1.654,0.091 2.478,1.83 3.741,1.774 1.323,-0.059 3.056,-0.993 2.911,2.813 -0.145,3.808 -0.264,8.623 -0.264,8.623 l 4.677,17.596 -0.356,35.409 h -3.969 l -0.088,-25.751 -2.911,4.498 -7.054,0.143 v 0.023 l -0.574,-0.012 -0.574,0.012 v -0.023 l -7.054,-0.143 -2.912,-4.498 -0.088,25.751 h -3.969 l -0.356,-35.409 4.678,-17.596 c 0,0 -0.12,-4.815 -0.265,-8.623 -0.144,-3.806 1.588,-2.872 2.912,-2.813 1.094,0.049 1.859,-1.252 3.12,-1.661 v -0.884 -0.529 c 0.525,-1.945 0.421,-4.519 1.851,-5.558 v -0.265 c 2.006,-3.598 8.358,-7.67 4.763,-14.023 -2.709,-4.789 -10.042,-2.743 -12.171,1.059 -1.055,1.88 -1.109,11.442 -3.97,11.377 -2.163,-0.049 -3.234,-7.22 -3.439,-10.32 -1.014,-15.321 16.23,-19.437 26.46,-13.229 C -2.565,-12.359 0.803,-6.549 0,0"
             style="fill:#231f20;fill-opacity:1;fill-rule:evenodd;stroke:none"
             id="path2026" />
        </g>
        <g
           id="g2028"
           transform="translate(344.4002,385.9998)">
          <path
             d="M 0,0 C -0.772,6.305 -5.756,8.615 -9.525,13.495 H -9.79 c -0.907,1.05 -1.418,2.496 -1.924,3.947 1.654,0.091 2.478,1.83 3.741,1.774 1.323,-0.059 3.056,-0.993 2.911,2.813 -0.145,3.808 -0.264,8.623 -0.264,8.623 l 4.677,17.596 -0.356,35.409 h -3.969 l -0.088,-25.751 -2.911,4.498 -7.054,0.143 v 0.023 l -0.574,-0.012 -0.574,0.012 v -0.023 l -7.054,-0.143 -2.912,-4.498 -0.088,25.751 h -3.969 l -0.356,-35.409 4.678,-17.596 c 0,0 -0.12,-4.815 -0.265,-8.623 -0.144,-3.806 1.588,-2.872 2.912,-2.813 1.094,0.049 1.859,-1.252 3.12,-1.661 v -0.884 -0.529 c 0.525,-1.945 0.421,-4.519 1.851,-5.558 v -0.265 c 2.006,-3.598 8.358,-7.67 4.763,-14.023 -2.709,-4.789 -10.042,-2.743 -12.171,1.059 -1.055,1.88 -1.109,11.442 -3.97,11.377 -2.163,-0.049 -3.234,-7.22 -3.439,-10.32 -1.014,-15.321 16.23,-19.437 26.46,-13.229 C -2.565,-12.359 0.803,-6.549 0,0 Z"
             style="fill:none;stroke:#231f20;stroke-width:1.102;stroke-linecap:butt;stroke-linejoin:round;stroke-miterlimit:10;stroke-dasharray:none;stroke-opacity:1"
             id="path2030" />
        </g>
        <g
           id="g2032"
           transform="translate(325.2391,397.8153)">
          <path
             d="M 0,0 -7.74,-8.44"
             style="fill:none;stroke:#231f20;stroke-width:2.205;stroke-linecap:butt;stroke-linejoin:round;stroke-miterlimit:10;stroke-dasharray:none;stroke-opacity:1"
             id="path2034" />
        </g>
        <g
           id="g2036"
           transform="translate(326.5955,380.2762)">
          <path
             d="m 0,0 4.034,-153.332 12.98,-9.362 L 4.603,4.596 Z"
             style="fill:#231f20;fill-opacity:1;fill-rule:nonzero;stroke:none"
             id="path2038" />
        </g>
        <g
           id="g2040"
           transform="translate(326.5955,380.2762)">
          <path
             d="m 0,0 4.034,-153.332 12.98,-9.362 L 4.603,4.596 Z"
             style="fill:none;stroke:#fbbc09;stroke-width:0.827;stroke-linecap:butt;stroke-linejoin:round;stroke-miterlimit:10;stroke-dasharray:none;stroke-opacity:1"
             id="path2042" />
        </g>
        <g
           id="g2044"
           transform="translate(402.7996,176.6888)">
          <path
             d="m 0,0 -13.977,8.445 -62.227,195.142 4.602,4.596 z"
             style="fill:#231f20;fill-opacity:1;fill-rule:nonzero;stroke:none"
             id="path2046" />
        </g>
        <g
           id="g2048"
           transform="translate(402.7996,176.6888)">
          <path
             d="m 0,0 -13.977,8.445 -62.227,195.142 4.602,4.596 z"
             style="fill:none;stroke:#fbbc09;stroke-width:0.827;stroke-linecap:butt;stroke-linejoin:round;stroke-miterlimit:10;stroke-dasharray:none;stroke-opacity:1"
             id="path2050" />
        </g>
      </g>
    </g>
  </g>
</svg>
