<?xml version="1.0" encoding="UTF-8" standalone="no"?>
<!-- Created with Inkscape (http://www.inkscape.org/) -->

<svg
   version="1.1"
   id="svg440"
   width="415"
   height="375"
   viewBox="0 0 415 375"
   sodipodi:docname="confines.svg"
   inkscape:version="1.2.2 (732a01da63, 2022-12-09)"
   xmlns:inkscape="http://www.inkscape.org/namespaces/inkscape"
   xmlns:sodipodi="http://sodipodi.sourceforge.net/DTD/sodipodi-0.dtd"
   xmlns="http://www.w3.org/2000/svg"
   xmlns:svg="http://www.w3.org/2000/svg">
  <defs
     id="defs444" />
  <sodipodi:namedview
     id="namedview442"
     pagecolor="#ffffff"
     bordercolor="#000000"
     borderopacity="0.25"
     inkscape:showpageshadow="2"
     inkscape:pageopacity="0.0"
     inkscape:pagecheckerboard="0"
     inkscape:deskcolor="#d1d1d1"
     showgrid="false"
     inkscape:zoom="1.4523973"
     inkscape:cx="224.45649"
     inkscape:cy="309.48831"
     inkscape:window-width="1680"
     inkscape:window-height="1243"
     inkscape:window-x="2515"
     inkscape:window-y="0"
     inkscape:window-maximized="0"
     inkscape:current-layer="g446" />
  <g
     inkscape:groupmode="layer"
     inkscape:label="Image"
     id="g446">
    <g
       id="g1004"
       transform="translate(-42.958901,-50.267664)">
      <path
         style="fill:#f6dd53"
         d="m 163.05282,422.0787 c 47.4375,-0.14365 125.0625,-0.14365 172.5,0 47.4375,0.14365 8.625,0.26118 -86.25,0.26118 -94.875,0 -133.6875,-0.11753 -86.25,-0.26118 z m 276.25,-6.62763 c 0,-0.20765 0.7875,-0.99515 1.75,-1.75 1.58606,-1.24387 1.62143,-1.2085 0.37756,0.37756 -1.30637,1.66575 -2.12756,2.19548 -2.12756,1.37244 z M 57.175269,413.07863 c -1.243871,-1.58606 -1.208501,-1.62143 0.377555,-0.37756 1.665748,1.30637 2.195478,2.12756 1.372445,2.12756 -0.207656,0 -0.995157,-0.7875 -1.75,-1.75 z m -4.467457,-4.5 -1.904988,-2.25 2.25,1.90499 c 2.114445,1.79022 2.705241,2.59501 1.904988,2.59501 -0.189757,0 -1.202257,-1.0125 -2.25,-2.25 z m 401.789958,-19.25 c 0.0204,-1.65 0.2445,-2.20394 0.49804,-1.23097 0.25354,0.97297 0.23687,2.32297 -0.0371,3 -0.27393,0.67703 -0.48137,-0.11903 -0.46099,-1.76903 z m -410.037051,-0.5 c 0,-1.375 0.226973,-1.9375 0.504386,-1.25 0.277411,0.6875 0.277411,1.8125 0,2.5 -0.277414,0.6875 -0.504386,0.125 -0.504386,-1.25 z m 0,-9 c 0,-1.375 0.226973,-1.9375 0.504386,-1.25 0.277411,0.6875 0.277411,1.8125 0,2.5 -0.277414,0.6875 -0.504386,0.125 -0.504386,-1.25 z M 454.38177,379.2453 c 0.048,-1.16495 0.28494,-1.4019 0.60416,-0.60417 0.28887,0.72187 0.25335,1.58438 -0.0789,1.91667 -0.33229,0.33229 -0.56864,-0.25834 -0.52522,-1.3125 z m -178.626,-315.666673 -3.95295,-4.25 4.25,3.952948 c 2.3375,2.174121 4.25,4.086621 4.25,4.25 0,0.756577 -0.87085,-4.9e-4 -4.54705,-3.952948 z m -55.45295,2.937091 c 0,-0.1721 1.4625,-1.6346 3.25,-3.25 l 3.25,-2.937091 -2.93709,3.25 c -2.73778,3.029455 -3.56291,3.709652 -3.56291,2.937091 z m 25.7277,-13.408823 c 1.77523,-0.220912 4.92523,-0.224542 7,-0.0081 2.07476,0.216475 0.6223,0.397221 -3.2277,0.401658 -3.85,0.0044 -5.54754,-0.17268 -3.7723,-0.393592 z"
         id="path1010" />
      <path
         style="fill:#f3d21d"
         d="m 69.635278,419.98329 c -16.70201,-5.7903 -27.397868,-24.1365 -24.247991,-41.59166 1.279544,-7.09064 2.701515,-9.99515 17.900305,-36.563 6.450138,-11.275 20.959503,-36.7 32.243033,-56.5 11.283525,-19.8 40.518525,-71.1 64.966665,-114 24.44815,-42.9 47.3434,-83.131623 50.87835,-89.403598 7.80507,-13.848354 13.80175,-20.69257 21.58584,-24.63667 5.42,-2.746248 6.63478,-2.959735 16.84134,-2.959735 9.93384,0 11.53308,0.262204 16.5,2.705252 10.25458,5.043858 12.6198,8.477158 44.98196,65.294751 16.60325,29.15 32.46754,57.05 35.25397,62 2.78644,4.95 8.32121,14.625 12.29949,21.5 5.99285,10.35643 50.88061,89.10643 84.93049,149 10.92912,19.22426 12.36186,24.05862 10.52951,35.52865 -2.01314,12.60176 -9.35608,22.55487 -20.77784,28.16366 l -5.71758,2.80769 -176.5,0.22308 C 83.908928,421.76328 74.536217,421.68236 69.635278,419.98329 Z M 422.6236,403.75651 c 5.18422,-1.43958 11.20117,-7.10926 13.2567,-12.49158 3.06076,-8.01449 1.95307,-11.06788 -14.45661,-39.85022 -8.17985,-14.34735 -40.28198,-70.63608 -71.33806,-125.08608 -31.05609,-54.45 -62.46529,-109.575 -69.79823,-122.5 -7.33293,-12.925003 -14.95195,-25.13809 -16.93114,-27.140196 -7.00821,-7.089341 -18.43662,-7.615482 -26.06122,-1.199806 -3.75259,3.157591 2.90221,-8.291053 -93.84712,161.450932 -64.092678,112.4475 -80.272588,141.54008 -80.781071,145.24987 -0.445595,3.25097 -0.128893,5.96636 1.058496,9.0755 1.928503,5.04971 8.185152,11.21661 12.302268,12.12579 1.526366,0.33707 3.225211,0.76296 3.775211,0.94643 0.55,0.18347 77.049996,0.3666 169.999996,0.40696 116.29031,0.0505 170.19167,-0.25754 172.82078,-0.9876 z M 82.302824,384.45796 c 0,-0.53893 166.136746,-291.978903 166.986056,-292.929843 0.39322,-0.44028 3.87507,4.73472 7.73744,11.500003 74.15577,129.89051 160.2765,281.09506 160.2765,281.4019 0,0.21924 -75.375,0.39861 -167.5,0.39861 -92.125,0 -167.499996,-0.1668 -167.499996,-0.37067 z m 117.999996,-4.64004 c 0,-0.55588 -1.56172,-5.16838 -3.47049,-10.25 -1.90878,-5.08161 -9.39079,-25.66429 -16.62671,-45.73929 -7.23591,-20.075 -14.52882,-40.25351 -16.20646,-44.84113 l -3.05026,-8.34113 -1.78348,2.34113 c -2.88129,3.78217 -20.37218,39.37585 -25.26887,51.42172 -8.73022,21.47635 -11.78277,36.90693 -8.79843,44.47578 1.54162,3.90981 6.25852,9.05757 9.65512,10.53703 3.82388,1.66558 65.54958,2.03838 65.54958,0.39589 z m 18,-0.14366 c 0,-0.6349 -1.13029,-5.0224 -2.51175,-9.75 -1.38146,-4.72759 -7.92475,-28.84563 -14.54065,-53.59563 -6.61589,-24.75 -12.72463,-47.14613 -13.57498,-49.76917 -2.08391,-6.42817 -5.65972,-8.21312 -15.69954,-7.83679 -1.71335,0.0642 -4.02014,1.29918 -5.85601,3.13505 -2.45166,2.45166 -2.93824,3.64308 -2.55253,6.25 0.36819,2.48844 29.84517,85.7399 38.40648,108.47091 l 1.6007,4.25 h 7.36414 c 4.89926,0 7.36414,-0.38638 7.36414,-1.15437 z m 111.02532,-5.44027 c 7.38815,-7.13266 8.79422,-10.51993 7.41613,-17.86576 -1.06647,-5.68476 -2.91939,-5.49361 -9.45679,0.97558 l -5.85266,5.79159 -10.816,-2.12937 c -26.82132,-5.28036 -56.34368,-8.9317 -79.5374,-9.83721 -14.25551,-0.55656 -16.80516,-0.43456 -17.28936,0.82726 -0.76439,1.99195 4.08057,17.27319 7.17922,22.6436 1.36807,2.37108 3.46484,4.70506 4.65947,5.18662 1.19464,0.48156 23.47832,0.90408 49.5193,0.93894 l 47.34723,0.0634 6.83086,-6.59464 z M 216.6236,270.75651 c 4.88123,-1.35544 11.47089,-7.28408 13.81356,-12.42788 5.73718,-12.59717 -2.33014,-28.46935 -15.93498,-31.35156 -18.97283,-4.01941 -34.08835,15.54074 -25.26445,32.69333 5.04594,9.8087 16.00697,14.24585 27.38587,11.08611 z"
         id="path1008" />
      <path
         style="fill:#0c0b08"
         d="m 79.802824,404.33715 c -0.55,-0.18347 -2.248846,-0.60936 -3.775211,-0.94643 -4.117116,-0.90918 -10.373766,-7.07608 -12.302268,-12.12579 -1.187389,-3.10914 -1.504091,-5.82453 -1.058496,-9.0755 0.508483,-3.70979 16.688393,-32.80237 80.781071,-145.24987 96.74933,-169.741985 90.09453,-158.293341 93.84712,-161.450932 7.6246,-6.415676 19.05301,-5.889535 26.06122,1.199806 1.97919,2.002106 9.59821,14.215193 16.93114,27.140196 7.33294,12.925 38.74214,68.05 69.79823,122.5 31.05608,54.45 63.15821,110.73873 71.33806,125.08608 16.40968,28.78234 17.51737,31.83573 14.45661,39.85022 -2.05553,5.38232 -8.07248,11.052 -13.2567,12.49158 -2.62911,0.73006 -56.53047,1.03808 -172.82078,0.9876 -92.95,-0.0404 -169.449996,-0.22349 -169.999996,-0.40696 z M 417.30282,384.43002 c 0,-0.30684 -86.12073,-151.51139 -160.2765,-281.4019 -3.86237,-6.765283 -7.34422,-11.940283 -7.73744,-11.500003 -0.84931,0.95094 -166.986056,292.390913 -166.986056,292.929843 0,0.20387 75.374996,0.37067 167.499996,0.37067 92.125,0 167.5,-0.17937 167.5,-0.39861 z m -282.54958,-5.00799 c -3.3966,-1.47946 -8.1135,-6.62722 -9.65512,-10.53703 -2.98434,-7.56885 0.0682,-22.99943 8.79843,-44.47578 4.89669,-12.04587 22.38758,-47.63955 25.26887,-51.42172 l 1.78348,-2.34113 3.05026,8.34113 c 1.67764,4.58762 8.97055,24.76613 16.20646,44.84113 7.23592,20.075 14.71793,40.65768 16.62671,45.73929 1.90877,5.08162 3.47049,9.69412 3.47049,10.25 0,1.64249 -61.7257,1.26969 -65.54958,-0.39589 z m 67.2206,-2.8434 c -8.56131,-22.73101 -38.03829,-105.98247 -38.40648,-108.47091 -0.38571,-2.60692 0.10087,-3.79834 2.55253,-6.25 1.83587,-1.83587 4.14266,-3.07083 5.85601,-3.13505 10.03982,-0.37633 13.61563,1.40862 15.69954,7.83679 0.85035,2.62304 6.95909,25.01917 13.57498,49.76917 6.6159,24.75 13.15919,48.86804 14.54065,53.59563 1.38146,4.7276 2.51175,9.1151 2.51175,9.75 0,0.76799 -2.46488,1.15437 -7.36414,1.15437 h -7.36414 z m 23.65691,3.24767 c -1.19463,-0.48156 -3.2914,-2.81554 -4.65947,-5.18662 -3.09865,-5.37041 -7.94361,-20.65165 -7.17922,-22.6436 0.4842,-1.26182 3.03385,-1.38382 17.28936,-0.82726 23.19372,0.90551 52.71608,4.55685 79.5374,9.83721 l 10.816,2.12937 5.85266,-5.79159 c 6.5374,-6.46919 8.39032,-6.66034 9.45679,-0.97558 1.37809,7.34583 -0.028,10.7331 -7.41613,17.86576 l -6.83086,6.59464 -47.34723,-0.0634 c -26.04098,-0.0349 -48.32466,-0.45738 -49.5193,-0.93894 z M 200.8326,270.23427 c -14.63728,-5.35846 -19.02105,-25.83514 -7.82316,-36.5421 4.57975,-4.37897 7.50986,-5.97354 12.79338,-6.96219 9.53808,-1.78475 19.40982,3.2632 23.86491,12.20341 4.83938,9.71137 2.9231,19.81106 -5.13783,27.07869 -6.34141,5.71733 -15.26841,7.30787 -23.6973,4.22219 z"
         id="path1006" />
    </g>
  </g>
</svg>
