<?xml version="1.0" encoding="UTF-8" standalone="no"?>
<!-- Created with Inkscape (http://www.inkscape.org/) -->

<svg
   version="1.1"
   id="svg772"
   width="831.49597"
   height="831.49597"
   viewBox="0 0 831.49597 831.49597"
   sodipodi:docname="fumer.svg"
   inkscape:version="1.2.2 (732a01da63, 2022-12-09)"
   xmlns:inkscape="http://www.inkscape.org/namespaces/inkscape"
   xmlns:sodipodi="http://sodipodi.sourceforge.net/DTD/sodipodi-0.dtd"
   xmlns="http://www.w3.org/2000/svg"
   xmlns:svg="http://www.w3.org/2000/svg">
  <defs
     id="defs776">
    <clipPath
       clipPathUnits="userSpaceOnUse"
       id="clipPath796">
      <path
         d="M 0,623.622 H 623.622 V 0 H 0 Z"
         id="path794" />
    </clipPath>
    <clipPath
       clipPathUnits="userSpaceOnUse"
       id="clipPath816">
      <path
         d="M 0,623.622 H 623.622 V 0 H 0 Z"
         id="path814" />
    </clipPath>
  </defs>
  <sodipodi:namedview
     id="namedview774"
     pagecolor="#ffffff"
     bordercolor="#000000"
     borderopacity="0.25"
     inkscape:showpageshadow="2"
     inkscape:pageopacity="0.0"
     inkscape:pagecheckerboard="0"
     inkscape:deskcolor="#d1d1d1"
     showgrid="false"
     inkscape:zoom="1.0018088"
     inkscape:cx="415.24889"
     inkscape:cy="416.74618"
     inkscape:window-width="1920"
     inkscape:window-height="991"
     inkscape:window-x="2391"
     inkscape:window-y="-9"
     inkscape:window-maximized="1"
     inkscape:current-layer="g780">
    <inkscape:page
       x="0"
       y="0"
       id="page778"
       width="831.49597"
       height="831.49597" />
  </sodipodi:namedview>
  <g
     id="g780"
     inkscape:groupmode="layer"
     inkscape:label="Page 1"
     transform="matrix(1.3333333,0,0,-1.3333333,0,831.496)">
    <g
       id="g782"
       transform="translate(157.2167,214.7259)">
      <path
         d="M 0,0 24.942,-43.205"
         style="fill:none;stroke:#231f20;stroke-width:14;stroke-linecap:round;stroke-linejoin:miter;stroke-miterlimit:10;stroke-dasharray:none;stroke-opacity:1"
         id="path784" />
    </g>
    <g
       id="g786"
       transform="translate(140.3045,205.5531)">
      <path
         d="M 0,0 24.946,-43.206"
         style="fill:none;stroke:#231f20;stroke-width:14;stroke-linecap:round;stroke-linejoin:miter;stroke-miterlimit:10;stroke-dasharray:none;stroke-opacity:1"
         id="path788" />
    </g>
    <g
       id="g790">
      <g
         id="g792"
         clip-path="url(#clipPath796)">
        <g
           id="g798"
           transform="translate(97.9042,335.7362)">
          <path
             d="m 0,0 c 9.115,-15.787 -10.009,-37.351 -0.895,-53.139 9.114,-15.784 24.901,-6.67 34.016,-22.457 9.115,-15.787 -6.905,-24.842 2.442,-40.691"
             style="fill:none;stroke:#231f20;stroke-width:8;stroke-linecap:round;stroke-linejoin:miter;stroke-miterlimit:10;stroke-dasharray:none;stroke-opacity:1"
             id="path800" />
        </g>
        <g
           id="g802"
           transform="translate(114.8143,344.9095)">
          <path
             d="m 0,0 c 9.114,-15.787 -10.01,-37.35 -0.895,-53.14 9.115,-15.785 24.9,-6.671 34.014,-22.458 9.115,-15.787 -6.902,-24.839 2.444,-40.688"
             style="fill:none;stroke:#231f20;stroke-width:8;stroke-linecap:round;stroke-linejoin:miter;stroke-miterlimit:10;stroke-dasharray:none;stroke-opacity:1"
             id="path804" />
        </g>
        <g
           id="g806"
           transform="translate(167.452,221.2259)">
          <path
             d="M 0,0 326.853,188.709 351.798,145.504 24.946,-43.203"
             style="fill:none;stroke:#231f20;stroke-width:15;stroke-linecap:butt;stroke-linejoin:miter;stroke-miterlimit:10;stroke-dasharray:none;stroke-opacity:1"
             id="path808" />
        </g>
      </g>
    </g>
    <g
       id="g810">
      <g
         id="g812"
         clip-path="url(#clipPath816)">
        <g
           id="g818"
           transform="translate(602.3627,311.8109)">
          <path
             d="m 0,0 c 0,-160.468 -130.084,-290.552 -290.551,-290.552 -160.468,0 -290.552,130.084 -290.552,290.552 0,160.467 130.084,290.551 290.552,290.551 C -130.084,290.551 0,160.467 0,0 Z"
             style="fill:none;stroke:#231f20;stroke-width:2;stroke-linecap:butt;stroke-linejoin:miter;stroke-miterlimit:10;stroke-dasharray:none;stroke-opacity:1"
             id="path820" />
        </g>
        <g
           id="g822"
           transform="translate(311.8109,595.2757)">
          <path
             d="m 0,0 c -156.553,0 -283.465,-126.911 -283.465,-283.465 0,-156.553 126.912,-283.464 283.465,-283.464 156.553,0 283.465,126.911 283.465,283.464 C 283.465,-126.911 156.553,0 0,0 m 0,-50 c 31.539,0 62.108,-6.165 90.859,-18.326 27.795,-11.757 52.768,-28.597 74.225,-50.054 21.458,-21.457 38.298,-46.43 50.055,-74.225 12.16,-28.75 18.326,-59.32 18.326,-90.86 0,-31.539 -6.166,-62.108 -18.326,-90.859 -11.757,-27.795 -28.597,-52.768 -50.055,-74.225 -21.457,-21.457 -46.43,-38.298 -74.225,-50.053 -28.751,-12.161 -59.32,-18.327 -90.859,-18.327 -31.54,0 -62.109,6.166 -90.86,18.327 -27.795,11.755 -52.767,28.596 -74.224,50.053 -21.458,21.457 -38.298,46.43 -50.055,74.225 -12.16,28.75 -18.326,59.32 -18.326,90.859 0,31.54 6.166,62.11 18.327,90.86 11.756,27.795 28.597,52.768 50.054,74.225 21.457,21.457 46.429,38.297 74.224,50.054 C -62.109,-56.165 -31.54,-50 0,-50"
             style="fill:#ed1c24;fill-opacity:1;fill-rule:nonzero;stroke:none"
             id="path824" />
        </g>
        <g
           id="g826"
           transform="translate(496.7474,126.8744)">
          <path
             d="M 0,0 -371.768,371.769"
             style="fill:none;stroke:#ed1c24;stroke-width:55;stroke-linecap:butt;stroke-linejoin:miter;stroke-miterlimit:10;stroke-dasharray:none;stroke-opacity:1"
             id="path828" />
        </g>
      </g>
    </g>
  </g>
</svg>
