<?xml version="1.0" encoding="UTF-8" standalone="no"?>
<!-- Created with Inkscape (http://www.inkscape.org/) -->

<svg
   version="1.1"
   id="svg562"
   width="831.49597"
   height="831.49597"
   viewBox="0 0 831.49597 831.49597"
   sodipodi:docname="manutention.svg"
   inkscape:version="1.2.2 (732a01da63, 2022-12-09)"
   xmlns:inkscape="http://www.inkscape.org/namespaces/inkscape"
   xmlns:sodipodi="http://sodipodi.sourceforge.net/DTD/sodipodi-0.dtd"
   xmlns="http://www.w3.org/2000/svg"
   xmlns:svg="http://www.w3.org/2000/svg">
  <defs
     id="defs566">
    <clipPath
       clipPathUnits="userSpaceOnUse"
       id="clipPath578">
      <path
         d="M 0,623.622 H 623.622 V 0 H 0 Z"
         id="path576" />
    </clipPath>
    <clipPath
       clipPathUnits="userSpaceOnUse"
       id="clipPath594">
      <path
         d="M 0,623.622 H 623.622 V 0 H 0 Z"
         id="path592" />
    </clipPath>
  </defs>
  <sodipodi:namedview
     id="namedview564"
     pagecolor="#ffffff"
     bordercolor="#000000"
     borderopacity="0.25"
     inkscape:showpageshadow="2"
     inkscape:pageopacity="0.0"
     inkscape:pagecheckerboard="0"
     inkscape:deskcolor="#d1d1d1"
     showgrid="false"
     inkscape:zoom="1.0018088"
     inkscape:cx="415.24889"
     inkscape:cy="416.74618"
     inkscape:window-width="1920"
     inkscape:window-height="991"
     inkscape:window-x="2391"
     inkscape:window-y="-9"
     inkscape:window-maximized="1"
     inkscape:current-layer="g570">
    <inkscape:page
       x="0"
       y="0"
       id="page568"
       width="831.49597"
       height="831.49597" />
  </sodipodi:namedview>
  <g
     id="g570"
     inkscape:groupmode="layer"
     inkscape:label="Page 1"
     transform="matrix(1.3333333,0,0,-1.3333333,0,831.496)">
    <g
       id="g572">
      <g
         id="g574"
         clip-path="url(#clipPath578)">
        <g
           id="g580"
           transform="translate(595.2757,311.8109)">
          <path
             d="m 0,0 c 0,-156.554 -126.912,-283.465 -283.466,-283.465 -156.552,0 -283.464,126.911 -283.464,283.465 0,156.554 126.912,283.465 283.464,283.465 C -126.912,283.465 0,156.554 0,0"
             style="fill:#2d71c1;fill-opacity:1;fill-rule:nonzero;stroke:none"
             id="path582" />
        </g>
        <g
           id="g584"
           transform="translate(595.2757,311.8109)">
          <path
             d="m 0,0 c 0,-156.554 -126.912,-283.465 -283.466,-283.465 -156.552,0 -283.464,126.911 -283.464,283.465 0,156.554 126.912,283.465 283.464,283.465 C -126.912,283.465 0,156.554 0,0 Z"
             style="fill:none;stroke:#ffffff;stroke-width:1;stroke-linecap:butt;stroke-linejoin:miter;stroke-miterlimit:10;stroke-dasharray:none;stroke-opacity:1"
             id="path586" />
        </g>
      </g>
    </g>
    <g
       id="g588">
      <g
         id="g590"
         clip-path="url(#clipPath594)">
        <g
           id="g596"
           transform="translate(602.3627,311.8109)">
          <path
             d="m 0,0 c 0,-160.468 -130.084,-290.552 -290.551,-290.552 -160.468,0 -290.552,130.084 -290.552,290.552 0,160.467 130.084,290.551 290.552,290.551 C -130.084,290.551 0,160.467 0,0 Z"
             style="fill:none;stroke:#231f20;stroke-width:2;stroke-linecap:butt;stroke-linejoin:miter;stroke-miterlimit:10;stroke-dasharray:none;stroke-opacity:1"
             id="path598" />
        </g>
        <g
           id="g600"
           transform="translate(488.4505,309.0228)">
          <path
             d="M 0,0 V 0 L 25.191,85.974 C 28.171,96.15 22.334,106.818 12.16,109.795 1.983,112.775 -8.682,106.94 -11.661,96.764 L -35.084,16.828 c 0,0 0,0 -10e-4,0 L 0.569,138.511 c 2.98,10.176 -2.857,20.842 -13.031,23.821 -10.177,2.98 -20.843,-2.854 -23.821,-13.031 L -69.814,34.87 c -0.24,0.124 -0.48,0.246 -0.719,0.37 l 39.562,135.019 c 2.979,10.177 -2.855,20.842 -13.031,23.822 -10.178,2.979 -20.844,-2.855 -23.822,-13.032 L -105.568,52.235 c -0.263,0.116 -0.524,0.227 -0.786,0.342 l 31.438,107.887 c 2.978,10.178 -2.857,20.843 -13.032,23.823 -10.177,2.979 -20.842,-2.856 -23.822,-13.032 L -142.629,65.347 c -0.054,0.013 -0.107,0.028 -0.161,0.041 l -95.047,-222.413 c 0,0 119.489,-57.658 134.571,-64.451 12.532,-5.645 34.846,4.117 43.274,22.095 C -49.395,-176.772 0,0 0,0"
             style="fill:#2d71c1;fill-opacity:1;fill-rule:nonzero;stroke:none"
             id="path602" />
        </g>
        <g
           id="g604"
           transform="translate(488.4505,309.0228)">
          <path
             d="M 0,0 V 0 L 25.191,85.974 C 28.171,96.15 22.334,106.818 12.16,109.795 1.983,112.775 -8.682,106.94 -11.661,96.764 L -35.084,16.828 c 0,0 0,0 -10e-4,0 L 0.569,138.511 c 2.98,10.176 -2.857,20.842 -13.031,23.821 -10.177,2.98 -20.843,-2.854 -23.821,-13.031 L -69.814,34.87 c -0.24,0.124 -0.48,0.246 -0.719,0.37 l 39.562,135.019 c 2.979,10.177 -2.855,20.842 -13.031,23.822 -10.178,2.979 -20.844,-2.855 -23.822,-13.032 L -105.568,52.235 c -0.263,0.116 -0.524,0.227 -0.786,0.342 l 31.438,107.887 c 2.978,10.178 -2.857,20.843 -13.032,23.823 -10.177,2.979 -20.842,-2.856 -23.822,-13.032 L -142.629,65.347 c -0.054,0.013 -0.107,0.028 -0.161,0.041 l -95.047,-222.413 c 0,0 119.489,-57.658 134.571,-64.451 12.532,-5.645 34.846,4.117 43.274,22.095 C -49.395,-176.772 0,0 0,0 Z"
             style="fill:none;stroke:#ffffff;stroke-width:8;stroke-linecap:butt;stroke-linejoin:miter;stroke-miterlimit:10;stroke-dasharray:none;stroke-opacity:1"
             id="path606" />
        </g>
        <g
           id="g608"
           transform="translate(274.0248,206.7806)">
          <path
             d="m 0,0 c 1.544,0.884 3.031,1.92 4.438,3.111 l 98.035,83.071 c 12.406,10.509 13.94,29.087 3.428,41.491 -10.508,12.404 -29.088,13.941 -41.491,3.429 L 51.266,119.965 Z"
             style="fill:#2d71c1;fill-opacity:1;fill-rule:nonzero;stroke:none"
             id="path610" />
        </g>
        <g
           id="g612"
           transform="translate(274.0248,206.7806)">
          <path
             d="m 0,0 c 1.544,0.884 3.031,1.92 4.438,3.111 l 98.035,83.071 c 12.406,10.509 13.94,29.087 3.428,41.491 -10.508,12.404 -29.088,13.941 -41.491,3.429 L 51.266,119.965 Z"
             style="fill:none;stroke:#ffffff;stroke-width:8;stroke-linecap:butt;stroke-linejoin:miter;stroke-miterlimit:10;stroke-dasharray:none;stroke-opacity:1"
             id="path614" />
        </g>
        <g
           id="g616"
           transform="translate(310.1742,422.8314)">
          <path
             d="m 0,0 c -14.061,1.47 -26.654,-8.738 -28.125,-22.8 l -2.264,-21.667 c 0,0 -7.953,16.348 -8.004,16.333 l -35.363,104.49 c -3.413,10.04 -14.319,15.413 -24.358,12.001 -10.038,-3.413 -15.413,-14.318 -12,-24.358 L -74.105,-42.4 c -0.447,-0.218 -0.894,-0.432 -1.344,-0.653 l -43.199,127.018 c -3.412,10.04 -14.317,15.412 -24.357,11.999 -10.04,-3.411 -15.414,-14.317 -12.001,-24.356 l 45.226,-132.973 c -0.609,-0.343 -1.218,-0.686 -1.827,-1.03 l -38.329,112.699 c -3.412,10.04 -14.317,15.412 -24.358,12 -10.038,-3.413 -15.412,-14.318 -11.999,-24.358 l 40.711,-119.703 c -0.562,-0.318 -1.122,-0.631 -1.684,-0.947 l -26.725,78.577 c -3.412,10.039 -14.317,15.412 -24.356,11.999 -10.037,-3.41 -15.412,-14.317 -12,-24.356 l 28.726,-84.466 c 0.048,-0.145 56.909,-173.91 68.802,-196.693 9.191,-17.604 35.392,-25.476 47.371,-18.737 13.522,7.608 131.69,70.151 131.69,70.151 l -54.375,113.531 10.93,104.574 C 24.27,-14.061 14.059,-1.471 0,0"
             style="fill:#ffffff;fill-opacity:1;fill-rule:nonzero;stroke:none"
             id="path618" />
        </g>
        <g
           id="g620"
           transform="translate(310.1742,422.8314)">
          <path
             d="m 0,0 c -14.061,1.47 -26.654,-8.738 -28.125,-22.8 l -2.264,-21.667 c 0,0 -7.953,16.348 -8.004,16.333 l -35.363,104.49 c -3.413,10.04 -14.319,15.413 -24.358,12.001 -10.038,-3.413 -15.413,-14.318 -12,-24.358 L -74.105,-42.4 c -0.447,-0.218 -0.894,-0.432 -1.344,-0.653 l -43.199,127.018 c -3.412,10.04 -14.317,15.412 -24.357,11.999 -10.04,-3.411 -15.414,-14.317 -12.001,-24.356 l 45.226,-132.973 c -0.609,-0.343 -1.218,-0.686 -1.827,-1.03 l -38.329,112.699 c -3.412,10.04 -14.317,15.412 -24.358,12 -10.038,-3.413 -15.412,-14.318 -11.999,-24.358 l 40.711,-119.703 c -0.562,-0.318 -1.122,-0.631 -1.684,-0.947 l -26.725,78.577 c -3.412,10.039 -14.317,15.412 -24.356,11.999 -10.037,-3.41 -15.412,-14.317 -12,-24.356 l 28.726,-84.466 c 0.048,-0.145 56.909,-173.91 68.802,-196.693 9.191,-17.604 35.392,-25.476 47.371,-18.737 13.522,7.608 131.69,70.151 131.69,70.151 l -54.375,113.531 10.93,104.574 C 24.27,-14.061 14.059,-1.471 0,0 Z"
             style="fill:none;stroke:#2d71c1;stroke-width:5;stroke-linecap:butt;stroke-linejoin:miter;stroke-miterlimit:10;stroke-dasharray:none;stroke-opacity:1"
             id="path622" />
        </g>
      </g>
    </g>
  </g>
</svg>
