<?xml version="1.0" encoding="UTF-8" standalone="no"?>
<!-- Created with Inkscape (http://www.inkscape.org/) -->

<svg
   version="1.1"
   id="svg2744"
   width="869.29199"
   height="793.70135"
   viewBox="0 0 869.29199 793.70135"
   sodipodi:docname="produit-explosif.svg"
   inkscape:version="1.2.2 (732a01da63, 2022-12-09)"
   xmlns:inkscape="http://www.inkscape.org/namespaces/inkscape"
   xmlns:sodipodi="http://sodipodi.sourceforge.net/DTD/sodipodi-0.dtd"
   xmlns="http://www.w3.org/2000/svg"
   xmlns:svg="http://www.w3.org/2000/svg">
  <defs
     id="defs2748">
    <clipPath
       clipPathUnits="userSpaceOnUse"
       id="clipPath2824">
      <path
         d="M 0,595.276 H 651.969 V 0 H 0 Z"
         id="path2822" />
    </clipPath>
    <clipPath
       clipPathUnits="userSpaceOnUse"
       id="clipPath2928">
      <path
         d="M 0,595.276 H 651.969 V 0 H 0 Z"
         id="path2926" />
    </clipPath>
  </defs>
  <sodipodi:namedview
     id="namedview2746"
     pagecolor="#ffffff"
     bordercolor="#000000"
     borderopacity="0.25"
     inkscape:showpageshadow="2"
     inkscape:pageopacity="0.0"
     inkscape:pagecheckerboard="0"
     inkscape:deskcolor="#d1d1d1"
     showgrid="false"
     inkscape:zoom="1.0495131"
     inkscape:cx="434.48718"
     inkscape:cy="397.8035"
     inkscape:window-width="1920"
     inkscape:window-height="991"
     inkscape:window-x="2391"
     inkscape:window-y="-9"
     inkscape:window-maximized="1"
     inkscape:current-layer="g2752">
    <inkscape:page
       x="0"
       y="0"
       id="page2750"
       width="869.29199"
       height="793.70135" />
  </sodipodi:namedview>
  <g
     id="g2752"
     inkscape:groupmode="layer"
     inkscape:label="Page 1"
     transform="matrix(1.3333333,0,0,-1.3333333,0,793.70133)">
    <g
       id="g2754"
       transform="translate(43.3045,46.0355)">
      <path
         d="M 0,0 282.67,507.569 565.339,0 Z"
         style="fill:#fbbc09;fill-opacity:1;fill-rule:nonzero;stroke:none"
         id="path2756" />
    </g>
    <g
       id="g2758"
       transform="translate(201.2132,145.8821)">
      <path
         d="m 0,0 42.667,283.333 22.371,-5.575 z"
         style="fill:#231f20;fill-opacity:1;fill-rule:nonzero;stroke:none"
         id="path2760" />
    </g>
    <g
       id="g2762"
       transform="translate(255.0447,213.5638)">
      <path
         d="m 0,0 94.706,282.664 28.212,-29.997 z"
         style="fill:#231f20;fill-opacity:1;fill-rule:nonzero;stroke:none"
         id="path2764" />
    </g>
    <g
       id="g2766"
       transform="translate(199.4505,224.8968)">
      <path
         d="M 0,0 -14.972,91.21 -2.341,90.522 Z"
         style="fill:#231f20;fill-opacity:1;fill-rule:nonzero;stroke:none"
         id="path2768" />
    </g>
    <g
       id="g2770"
       transform="translate(192.3055,156.4339)">
      <path
         d="m 0,0 -50.459,89.732 36.732,30.761 z"
         style="fill:#231f20;fill-opacity:1;fill-rule:nonzero;stroke:none"
         id="path2772" />
    </g>
    <g
       id="g2774"
       transform="translate(240.0653,121.4876)">
      <path
         d="M 0,0 339.167,-30.76 283.473,-75.452 Z"
         style="fill:#231f20;fill-opacity:1;fill-rule:nonzero;stroke:none"
         id="path2776" />
    </g>
    <g
       id="g2778"
       transform="translate(255.0447,138.1536)">
      <path
         d="M 0,0 310.545,-1.257 277.286,-16.666 Z"
         style="fill:#231f20;fill-opacity:1;fill-rule:nonzero;stroke:none"
         id="path2780" />
    </g>
    <g
       id="g2782"
       transform="translate(229.6258,109.7161)">
      <path
         d="m 0,0 268.889,-75.98 -115.486,4.46 z"
         style="fill:#231f20;fill-opacity:1;fill-rule:nonzero;stroke:none"
         id="path2784" />
    </g>
    <g
       id="g2786"
       transform="translate(246.9285,143.7005)">
      <path
         d="m 0,0 223.012,125.196 25.603,-50.79 z"
         style="fill:#231f20;fill-opacity:1;fill-rule:nonzero;stroke:none"
         id="path2788" />
    </g>
    <g
       id="g2790"
       transform="translate(240.4852,168.2933)">
      <path
         d="m 0,0 146.855,246.028 22.977,-28.023 z"
         style="fill:#231f20;fill-opacity:1;fill-rule:nonzero;stroke:none"
         id="path2792" />
    </g>
    <g
       id="g2794"
       transform="translate(454.3094,346.3694)">
      <path
         d="M 0,0 -209.111,-193.104 -24.71,27.271 Z"
         style="fill:#231f20;fill-opacity:1;fill-rule:nonzero;stroke:none"
         id="path2796" />
    </g>
    <g
       id="g2798"
       transform="translate(285.5526,450.1512)">
      <path
         d="M 0,0 -54.666,-279.333 -5.556,10.556 Z"
         style="fill:#231f20;fill-opacity:1;fill-rule:nonzero;stroke:none"
         id="path2800" />
    </g>
    <g
       id="g2802"
       transform="translate(568.2567,55.5638)">
      <path
         d="M 0,0 -196.633,46.449 -5.482,16.162 Z"
         style="fill:#fbbc09;fill-opacity:1;fill-rule:nonzero;stroke:none"
         id="path2804" />
    </g>
    <g
       id="g2806"
       transform="translate(477.9656,224.8968)">
      <path
         d="M 0,0 -180.296,-61.539 -61.043,8 Z"
         style="fill:#fbbc09;fill-opacity:1;fill-rule:nonzero;stroke:none"
         id="path2808" />
    </g>
    <g
       id="g2810"
       transform="translate(427.2567,269.5638)">
      <path
         d="M 0,0 -160.587,-76.206 -41.334,-6.667 Z"
         style="fill:#fbbc09;fill-opacity:1;fill-rule:nonzero;stroke:none"
         id="path2812" />
    </g>
    <g
       id="g2814"
       transform="translate(371.6238,471.6351)">
      <path
         d="m 0,0 -67.129,-138.557 45.762,127.629 z"
         style="fill:#fbbc09;fill-opacity:1;fill-rule:nonzero;stroke:none"
         id="path2816" />
    </g>
    <g
       id="g2818">
      <g
         id="g2820"
         clip-path="url(#clipPath2824)">
        <g
           id="g2826"
           transform="translate(222.5286,91.3372)">
          <path
             d="m 0,0 c -17.092,-17.969 -45.512,-18.681 -63.479,-1.59 -17.968,17.093 -18.678,45.513 -1.587,63.482 l 0.388,0.213 c 0.42,0.443 0.842,0.885 1.263,1.329 0.68,0.746 1.363,1.324 2.051,1.746 1.938,0.963 12.644,7.017 14.605,6.991 1.668,-2.151 -0.76,-3.687 0,-5.862 1.73,-1.155 -7.165,-6.827 -6.554,-8.01 1.11,-0.056 2.599,-0.051 3.354,1.48 0.947,-0.597 2.427,-1.402 3.025,-1.32 0.712,-0.514 -0.386,-1.074 0.039,-1.594 1.023,-0.99 2.016,-0.814 3.001,-0.324 1.248,-1.032 0.002,-2.084 0.775,-3.073 0.592,-0.757 2.121,-0.765 2.836,-1.723 0.39,-0.522 -0.157,-1.116 0.735,-1.479 0.141,-1.983 -1.955,-1.956 -3.261,-1.178 -0.519,0.709 -0.209,1.348 -0.746,1.878 -1.181,1.157 -2.01,-0.267 -3.364,-1.083 1.221,-0.969 2.41,-0.623 3.617,-1.108 0.451,-2.181 0.045,-4.386 1.363,-6.547 0.637,-0.253 1.266,-0.156 1.921,-1.05 -0.325,-0.323 -0.679,0.508 -1,-0.024 -0.371,-1.113 1.575,-2.636 2.556,-2.429 0.866,2.237 -2.826,2.609 -1.418,4.851 0.347,0.552 0.715,0.63 1.371,1.031 -0.265,1.334 -0.406,3.177 1.601,3.731 0.652,-1.014 0.828,-2.041 0.976,-3.068 0.505,-0.311 1.019,-0.893 1.502,-0.263 0.176,0.538 -0.801,1.046 -0.838,1.577 0.39,0.428 0.776,0.855 1.173,1.025 1.071,-0.361 2.15,-0.921 3.212,-0.917 -1.164,-2.383 2.045,-2.297 3.209,-4.606 -0.287,-1.334 -1.202,-2.159 -2.455,-1.557 -0.694,0.547 -0.396,1.12 -1.139,1.666 -0.168,0.092 -0.331,-0.026 -0.501,0.088 -0.96,-1.387 -4.833,-10.19 -3.686,-11.524 0.476,-0.422 0.918,0.473 1.4,-0.165 0.121,-0.629 -0.104,-1.266 0.347,-1.887 0.864,-0.016 1.709,0.751 2.57,0.862 -0.274,0.958 -0.28,1.921 0.426,2.904 0.792,0.25 1.604,-0.252 2.382,0.459 1.555,-0.769 1.132,-2.506 1.778,-3.248 0.823,-0.946 1.676,-0.146 2.82,-1.125 -0.165,-1.28 -1.822,-1.386 -2.648,-1.762 -0.783,-1.117 -4.577,-4.94 -4.566,-6.037 1.576,-0.574 6.83,0.058 8.378,0.592 1.356,-0.55 0.19,-1.943 1.424,-2.444 0.47,-1.801 -0.275,-2.092 -0.871,-3.564 1.229,-1.311 7.622,6.113 8.814,6.199 0.876,-1.809 3.431,1.102 4.569,0.873 1.024,-2.146 -2.295,-2.674 -2.477,-4.65 0.934,-0.207 2.303,-0.357 2.924,-1.225 0.381,-0.533 0.566,-3.802 -1.097,-4.016 0.061,-0.696 -0.787,-1.416 -0.247,-2.099 0.202,-0.093 0.401,-0.096 0.601,-0.186 0.559,1.203 1.772,1.52 2.334,2.451 0.568,-0.097 1.136,-0.183 1.692,0.143 0.549,0.512 -0.089,0.994 0.062,1.499 2.801,2.024 3.322,-2.124 3.786,-3.797 C -0.662,10.203 0.075,10.322 0.161,9.768 -0.808,8.703 -1.824,9.387 -2.803,8.697 -3.13,7.824 -3.097,6.963 -2.939,6.102 -1.689,5.916 0.542,5.594 0.905,4.002 2.039,4.39 0.612,1.035 0.192,0.594 0.045,0.459 -0.1,0.32 0.002,0.189 -0.031,0.156 -0.064,0.121 -0.094,0.088 Z"
             style="fill:#231f20;fill-opacity:1;fill-rule:evenodd;stroke:none"
             id="path2828" />
        </g>
        <g
           id="g2830"
           transform="translate(423.9139,261.5521)">
          <path
             d="m 0,0 c -3.535,-0.109 -5.578,1.277 -7.348,2.936 0.371,3.06 0.934,5.925 1.961,8.324 0.578,-0.731 1.227,-1.383 1.957,-1.957 2.774,1.26 2.645,5.629 5.879,5.383 C 9.695,14.135 2.922,2.859 0,0"
             style="fill:#231f20;fill-opacity:1;fill-rule:evenodd;stroke:none"
             id="path2832" />
        </g>
        <g
           id="g2834"
           transform="translate(199.1126,147.555)">
          <path
             d="m 0,0 c -6.715,1.324 -7.906,-4.051 -12.73,-5.877 -3.411,1.727 -3.743,7.188 -2.938,11.752 7.094,-0.584 8.082,8.566 13.707,8.324 C 4.687,13.91 2.418,4.309 0,0"
             style="fill:#231f20;fill-opacity:1;fill-rule:evenodd;stroke:none"
             id="path2836" />
        </g>
        <g
           id="g2838"
           transform="translate(288.2503,259.0599)">
          <path
             d="M 0,0 C 0.574,-2.621 -0.152,-3.656 0,-6.855 -1.605,-6.883 -1.875,-8.25 -3.918,-7.836 -5.852,-5.34 -8.98,2.113 -2.941,0.977 -3.016,0.402 -3.832,0.562 -4.406,0.488 -2.953,-0.77 -1.684,0.824 0,0"
             style="fill:#231f20;fill-opacity:1;fill-rule:evenodd;stroke:none"
             id="path2840" />
        </g>
        <g
           id="g2842"
           transform="translate(323.7293,160.0423)">
          <path
             d="M 0,0 C -0.789,-4.598 -3.129,-7.645 -7.832,-8.324 -14.5,-4.621 -4.371,5.844 0,0"
             style="fill:#231f20;fill-opacity:1;fill-rule:evenodd;stroke:none"
             id="path2844" />
        </g>
        <g
           id="g2846"
           transform="translate(231.2073,226.7962)">
          <path
             d="M 0,0 C -3.063,-0.123 -6.199,-0.322 -6.852,1.961 -7.156,9.59 5.906,5.547 0,0"
             style="fill:#231f20;fill-opacity:1;fill-rule:evenodd;stroke:none"
             id="path2848" />
        </g>
        <g
           id="g2850"
           transform="translate(354.3065,229.18)">
          <path
             d="m 0,0 c 0.551,-1.57 2.926,-1.32 3.918,-2.447 -0.527,-2.649 1.328,-2.916 0.98,-5.387 -1.757,-1.342 -3.117,-3.084 -5.386,-3.916 -0.821,0.812 -0.391,2.877 -0.489,4.406 -4.988,1.219 -3.191,5.869 -3.429,10.283 -0.188,1.44 -2.305,0.958 -2.938,1.958 C -3.199,8.641 0.223,17.598 6.367,16.156 6.152,14.475 6.559,13.414 6.855,12.24 4.543,11.617 4.422,8.801 1.961,8.322 2.066,4.789 2.41,1.02 0,0"
             style="fill:#231f20;fill-opacity:1;fill-rule:evenodd;stroke:none"
             id="path2852" />
        </g>
        <g
           id="g2854"
           transform="translate(211.3026,144.4446)">
          <path
             d="M 0,0 C 2.242,1.346 4.187,2.992 6.855,3.916 V 6.854 C 4.469,7.566 1.32,7.518 0,9.299 c -0.48,2.785 -1.203,5.328 -1.469,8.324 4.239,3.434 10.137,5.207 9.793,13.218 2.168,3.117 7.324,0.723 10.281,2.447 0.379,-1.088 1.032,-1.908 0.977,-3.426 -2.668,-4.534 -9.34,-7.594 -8.32,-14.196 2.613,0.813 4.769,2.088 6.855,3.426 0.785,1.826 -0.129,5.351 1.465,6.363 1.715,-1.226 4.09,-1.789 4.41,-4.406 0.496,-2.287 -1.965,-1.625 -1.469,-3.916 4.274,-3.463 4.973,3.56 8.321,3.429 3.379,-0.134 3.019,-4.908 6.367,-6.367 1.328,-1.402 2.758,1.817 3.426,-0.98 C 38.906,12.418 38.844,11.244 37.211,12.24 36.293,5.578 32.227,-1.801 34.273,-8.324 33.34,-8.535 33.043,-9.379 31.824,-9.305 26.996,-6.352 24.535,-1.352 26.441,5.873 23.516,7.061 20.086,11.184 16.156,8.322 15.746,6.275 17.109,6.008 17.137,4.406 15.156,1.283 11.605,0.988 11.262,-2.451 Z"
             style="fill:#231f20;fill-opacity:1;fill-rule:evenodd;stroke:none"
             id="path2856" />
        </g>
        <g
           id="g2858"
           transform="translate(281.2894,142.8343)">
          <path
             d="M 0,0 C -3.063,-0.123 -6.199,-0.322 -6.855,1.961 -7.156,9.589 5.902,5.546 0,0"
             style="fill:#231f20;fill-opacity:1;fill-rule:evenodd;stroke:none"
             id="path2860" />
        </g>
        <g
           id="g2862"
           transform="translate(278.5755,390.013)">
          <path
             d="m 0,0 c 2.559,-2.664 3.727,-6.715 5.383,-10.279 1.375,-0.586 3.379,-0.539 5.387,-0.493 1.25,1.364 0.191,5.034 1.96,5.877 2.743,0.297 2.508,-2.39 2.934,-4.408 -2.23,-2.828 -4.391,-5.726 -5.383,-9.793 6.199,-3.726 10.492,1.039 13.219,4.899 2.578,-0.692 3.652,-1.43 5.875,-0.981 9.008,1.824 1.109,12.002 8.813,15.178 0,0 -12.321,17.875 -12.243,15.668 C 25.336,9.59 19.004,9.227 13.219,8.324 13.098,9.023 12.41,9.148 12.238,9.793 c -0.402,3.176 1.75,3.797 1.469,6.852 -1.488,4.593 -5.75,4.921 -9.793,2.449 C 0.891,10.645 8.789,2.773 0,0"
             style="fill:#231f20;fill-opacity:1;fill-rule:evenodd;stroke:none"
             id="path2864" />
        </g>
        <g
           id="g2866"
           transform="translate(382.0252,179.4515)">
          <path
             d="m 0,0 c 5.059,-2.945 7.008,-7.879 14.688,-5.879 v -4.895 c -3.864,-1.253 -2.372,2.856 -4.899,2.938 -2.32,-2.242 -4.207,-4.93 -7.832,-5.875 -2.98,-0.039 -3.805,2.07 -5.871,2.937 C -4.832,-4.961 -1.242,-3.656 0,0"
             style="fill:#231f20;fill-opacity:1;fill-rule:evenodd;stroke:none"
             id="path2868" />
        </g>
        <g
           id="g2870"
           transform="translate(410.9569,156.4339)">
          <path
             d="M 0,0 C -11.145,2.123 0.145,12.039 3.43,16.646 H 5.387 C 6.75,10.986 1.48,5.809 0,0"
             style="fill:#231f20;fill-opacity:1;fill-rule:evenodd;stroke:none"
             id="path2872" />
        </g>
        <g
           id="g2874"
           transform="translate(402.1444,158.3929)">
          <path
             d="m 0,0 c -0.551,-2.664 -0.508,-5.109 0.492,-7.346 3.5,-0.16 5.84,1.055 8.321,-0.49 0.832,2.996 4.644,5.371 8.324,3.918 1.886,-10.105 -14.703,-16.262 -18.606,-5.875 -2.504,0.219 -3.23,-1.342 -5.386,-1.471 -0.543,1.088 -1.938,1.328 -2.45,2.45 0.418,2.359 1.578,3.972 2.45,5.875 -0.207,2.24 -0.743,4.152 -0.489,6.855 C -4.07,7.807 -2.449,1.365 0,0"
             style="fill:#231f20;fill-opacity:1;fill-rule:evenodd;stroke:none"
             id="path2876" />
        </g>
        <g
           id="g2878"
           transform="translate(327.1141,203.4114)">
          <path
             d="m 0,0 c -3.535,-0.109 -5.574,1.277 -7.344,2.936 0.371,3.06 0.934,5.925 1.961,8.324 0.574,-0.731 1.227,-1.383 1.957,-1.957 2.774,1.26 2.645,5.629 5.875,5.383 C 9.699,14.135 2.922,2.859 0,0"
             style="fill:#231f20;fill-opacity:1;fill-rule:evenodd;stroke:none"
             id="path2880" />
        </g>
        <g
           id="g2882"
           transform="translate(230.8865,265.9222)">
          <path
             d="M 0,0 C 6.635,0.915 5.012,-5.115 5.622,-8.63 5.93,-10.406 7.588,-15.445 4.846,-17.029 -3.533,-21.868 0.591,-5.165 1.286,-2.47 Z"
             style="fill:#231f20;fill-opacity:1;fill-rule:evenodd;stroke:none"
             id="path2884" />
        </g>
        <g
           id="g2886"
           transform="translate(216.5736,293.8929)">
          <path
             d="m 0,0 c -4.072,-4.004 -7.548,3.616 -11.583,-4.89 -2.605,-5.494 0.395,-10.586 -4.204,-14.144 6.187,-2.512 12.007,-5.491 18.524,1.372 -1.945,4.662 -6.954,2.763 -9.822,5.618 4.776,1.439 7.696,5.08 5.819,10.145 z"
             style="fill:#231f20;fill-opacity:1;fill-rule:evenodd;stroke:none"
             id="path2888" />
        </g>
        <g
           id="g2890"
           transform="translate(194.4217,214.7786)">
          <path
             d="m 0,0 c 2.502,-3.339 11.042,-19.879 2.723,-22.181 0.783,0.074 1.495,-0.019 2.259,0.142 -1.148,3.933 -5.051,8.067 -6.862,11.945 -2.838,6.076 -1.675,8.263 3.207,12.604 z"
             style="fill:#231f20;fill-opacity:1;fill-rule:evenodd;stroke:none"
             id="path2892" />
        </g>
        <g
           id="g2894"
           transform="translate(293.1561,129.3362)">
          <path
             d="m 0,0 c -5.742,3.562 -19.703,0.163 -17.641,-8.766 4.821,0.405 10.657,-4.613 9.346,-9.633 3.801,-1.348 8.558,0.747 12.21,-0.58 2.752,-1 4.221,-3.817 6.889,-4.368 2.029,4.371 -2.451,2.978 -4.224,5.594 -1.33,1.962 -1.334,4.072 -2.276,6.187 -2.15,4.83 -11.419,6.857 -7.567,10.615 z"
             style="fill:#231f20;fill-opacity:1;fill-rule:evenodd;stroke:none"
             id="path2896" />
        </g>
        <g
           id="g2898"
           transform="translate(226.1976,208.6683)">
          <path
             d="m 0,0 c -7.703,-7.991 -17.49,-16.9 -9.322,-27.858 10.354,2.755 10.512,16.497 7.926,25.095 z"
             style="fill:#231f20;fill-opacity:1;fill-rule:evenodd;stroke:none"
             id="path2900" />
        </g>
        <g
           id="g2902"
           transform="translate(226.1976,208.6683)">
          <path
             d="m 0,0 c -7.703,-7.991 -17.49,-16.9 -9.322,-27.858 10.354,2.755 10.512,16.497 7.926,25.095 z"
             style="fill:none;stroke:#231f20;stroke-width:0.25;stroke-linecap:butt;stroke-linejoin:miter;stroke-miterlimit:10;stroke-dasharray:none;stroke-opacity:1"
             id="path2904" />
        </g>
        <g
           id="g2906"
           transform="translate(269.0726,312.0286)">
          <path
             d="m 0,0 c -7.022,-5.364 -11.312,-14.297 -12.691,-22.88 -1.291,-8.035 1.212,-12.623 3.882,-19.138 12.159,3.18 11.333,13.032 9.379,22.521 -12.688,-2.577 6.717,10.752 8.107,10.346 5.006,5.459 -1.356,8.779 -8.846,11.625 z"
             style="fill:#231f20;fill-opacity:1;fill-rule:evenodd;stroke:none"
             id="path2908" />
        </g>
        <g
           id="g2910"
           transform="translate(269.0726,312.0286)">
          <path
             d="m 0,0 c -7.022,-5.364 -11.312,-14.297 -12.691,-22.88 -1.291,-8.035 1.212,-12.623 3.882,-19.138 12.159,3.18 11.333,13.032 9.379,22.521 -12.688,-2.577 6.717,10.752 8.107,10.346 5.006,5.459 -1.356,8.779 -8.846,11.625 z"
             style="fill:none;stroke:#231f20;stroke-width:0.25;stroke-linecap:butt;stroke-linejoin:miter;stroke-miterlimit:10;stroke-dasharray:none;stroke-opacity:1"
             id="path2912" />
        </g>
        <g
           id="g2914"
           transform="translate(204.9119,131.179)">
          <path
             d="m 0,0 c 0.466,-3.864 -1.355,-3.995 -0.375,-7.661 0.83,-3.105 4.015,-5.595 5.047,-8.732 5.968,-0.145 4.913,8.945 6.995,12.368 C 15.21,1.799 24.93,1.868 27.162,8.104 22.179,6.676 17.457,8.028 12.773,6.766 10.069,6.037 5.71,2.946 3.292,1.15 1.86,1.635 0.207,1.721 -1.136,2.479 Z"
             style="fill:#231f20;fill-opacity:1;fill-rule:evenodd;stroke:none"
             id="path2916" />
        </g>
        <g
           id="g2918"
           transform="translate(204.9119,131.179)">
          <path
             d="m 0,0 c 0.466,-3.864 -1.355,-3.995 -0.375,-7.661 0.83,-3.105 4.015,-5.595 5.047,-8.732 5.968,-0.145 4.913,8.945 6.995,12.368 C 15.21,1.799 24.93,1.868 27.162,8.104 22.179,6.676 17.457,8.028 12.773,6.766 10.069,6.037 5.71,2.946 3.292,1.15 1.86,1.635 0.207,1.721 -1.136,2.479 Z"
             style="fill:none;stroke:#231f20;stroke-width:0.25;stroke-linecap:butt;stroke-linejoin:miter;stroke-miterlimit:10;stroke-dasharray:none;stroke-opacity:1"
             id="path2920" />
        </g>
      </g>
    </g>
    <g
       id="g2922">
      <g
         id="g2924"
         clip-path="url(#clipPath2928)">
        <g
           id="g2930"
           transform="translate(43.304,23.2601)">
          <path
             d="m 0,0 c -7.897,0 -15.233,4.366 -19.145,11.393 -3.849,6.908 -3.849,15.493 0.001,22.404 l 282.669,507.567 c 3.912,7.027 11.248,11.392 19.144,11.392 7.897,0 15.233,-4.365 19.147,-11.392 L 584.033,34.605 c 2.207,-3.597 3.371,-7.746 3.371,-12.011 0,-12.288 -9.621,-22.318 -21.549,-22.588 L 565.81,0 h -0.461 z"
             style="fill:none;stroke:#231f20;stroke-width:2;stroke-linecap:butt;stroke-linejoin:miter;stroke-miterlimit:10;stroke-dasharray:none;stroke-opacity:1"
             id="path2932" />
        </g>
        <g
           id="g2934"
           transform="translate(69.2132,61.5423)">
          <path
             d="M 0,0 H 513.523 L 256.761,461.048 Z m 539.451,-31.014 c -0.007,-0.001 -0.014,-0.001 -0.021,0 H -25.909 c -5.343,0 -10.282,2.956 -12.953,7.754 -2.673,4.797 -2.673,10.709 0,15.507 l 282.67,507.568 c 2.671,4.798 7.609,7.754 12.953,7.754 5.345,0 10.282,-2.956 12.954,-7.754 l 282.297,-506.9 c 1.516,-2.425 2.397,-5.317 2.397,-8.422 0,-8.564 -6.697,-15.507 -14.958,-15.507"
             style="fill:#231f20;fill-opacity:1;fill-rule:nonzero;stroke:none"
             id="path2936" />
        </g>
        <g
           id="g2938"
           transform="translate(69.2132,61.5423)">
          <path
             d="M 0,0 H 513.523 L 256.761,461.048 Z m 539.451,-31.014 c -0.007,-0.001 -0.014,-0.001 -0.021,0 H -25.909 c -5.343,0 -10.282,2.956 -12.953,7.754 -2.673,4.797 -2.673,10.709 0,15.507 l 282.67,507.568 c 2.671,4.798 7.609,7.754 12.953,7.754 5.345,0 10.282,-2.956 12.954,-7.754 l 282.297,-506.9 c 1.516,-2.425 2.397,-5.317 2.397,-8.422 0,-8.564 -6.697,-15.507 -14.958,-15.507 z"
             style="fill:none;stroke:#231f20;stroke-width:2.538;stroke-linecap:butt;stroke-linejoin:miter;stroke-miterlimit:10;stroke-dasharray:none;stroke-opacity:1"
             id="path2940" />
        </g>
      </g>
    </g>
  </g>
</svg>
