<?xml version="1.0" encoding="UTF-8" standalone="no"?>
<!-- Created with Inkscape (http://www.inkscape.org/) -->

<svg
   version="1.1"
   id="svg976"
   width="869.29199"
   height="793.70135"
   viewBox="0 0 869.29199 793.70135"
   sodipodi:docname="produit-inflammable.svg"
   inkscape:version="1.2.2 (732a01da63, 2022-12-09)"
   xmlns:inkscape="http://www.inkscape.org/namespaces/inkscape"
   xmlns:sodipodi="http://sodipodi.sourceforge.net/DTD/sodipodi-0.dtd"
   xmlns="http://www.w3.org/2000/svg"
   xmlns:svg="http://www.w3.org/2000/svg">
  <defs
     id="defs980">
    <clipPath
       clipPathUnits="userSpaceOnUse"
       id="clipPath996">
      <path
         d="M 0,595.276 H 651.969 V 0 H 0 Z"
         id="path994" />
    </clipPath>
    <clipPath
       clipPathUnits="userSpaceOnUse"
       id="clipPath1012">
      <path
         d="M 0,595.276 H 651.969 V 0 H 0 Z"
         id="path1010" />
    </clipPath>
  </defs>
  <sodipodi:namedview
     id="namedview978"
     pagecolor="#ffffff"
     bordercolor="#000000"
     borderopacity="0.25"
     inkscape:showpageshadow="2"
     inkscape:pageopacity="0.0"
     inkscape:pagecheckerboard="0"
     inkscape:deskcolor="#d1d1d1"
     showgrid="false"
     inkscape:zoom="1.0495131"
     inkscape:cx="434.48718"
     inkscape:cy="397.8035"
     inkscape:window-width="1920"
     inkscape:window-height="991"
     inkscape:window-x="2391"
     inkscape:window-y="-9"
     inkscape:window-maximized="1"
     inkscape:current-layer="g984">
    <inkscape:page
       x="0"
       y="0"
       id="page982"
       width="869.29199"
       height="793.70135" />
  </sodipodi:namedview>
  <g
     id="g984"
     inkscape:groupmode="layer"
     inkscape:label="Page 1"
     transform="matrix(1.3333333,0,0,-1.3333333,0,793.70133)">
    <g
       id="g986"
       transform="translate(43.3035,43.8538)">
      <path
         d="M 0,0 282.67,507.569 565.339,0 Z"
         style="fill:#fbbc09;fill-opacity:1;fill-rule:nonzero;stroke:none"
         id="path988" />
    </g>
    <g
       id="g990">
      <g
         id="g992"
         clip-path="url(#clipPath996)">
        <g
           id="g998"
           transform="translate(69.2127,59.3607)">
          <path
             d="M 0,0 H 513.522 L 256.761,461.048 Z m 539.451,-31.014 c -0.008,-0.001 -0.014,-0.001 -0.021,0 H -25.909 c -5.344,0 -10.282,2.956 -12.953,7.754 -2.673,4.797 -2.673,10.709 0,15.507 l 282.67,507.568 c 2.67,4.798 7.609,7.754 12.953,7.754 5.344,0 10.282,-2.956 12.954,-7.754 l 282.297,-506.9 c 1.515,-2.425 2.396,-5.317 2.396,-8.422 0,-8.564 -6.695,-15.507 -14.957,-15.507"
             style="fill:#231f20;fill-opacity:1;fill-rule:nonzero;stroke:none"
             id="path1000" />
        </g>
        <g
           id="g1002"
           transform="translate(69.2127,59.3607)">
          <path
             d="M 0,0 H 513.522 L 256.761,461.048 Z m 539.451,-31.014 c -0.008,-0.001 -0.014,-0.001 -0.021,0 H -25.909 c -5.344,0 -10.282,2.956 -12.953,7.754 -2.673,4.797 -2.673,10.709 0,15.507 l 282.67,507.568 c 2.67,4.798 7.609,7.754 12.953,7.754 5.344,0 10.282,-2.956 12.954,-7.754 l 282.297,-506.9 c 1.515,-2.425 2.396,-5.317 2.396,-8.422 0,-8.564 -6.695,-15.507 -14.957,-15.507 z"
             style="fill:none;stroke:#231f20;stroke-width:2.538;stroke-linecap:butt;stroke-linejoin:miter;stroke-miterlimit:10;stroke-dasharray:none;stroke-opacity:1"
             id="path1004" />
        </g>
      </g>
    </g>
    <g
       id="g1006">
      <g
         id="g1008"
         clip-path="url(#clipPath1012)">
        <g
           id="g1014"
           transform="translate(43.304,21.2601)">
          <path
             d="m 0,0 c -7.897,0 -15.233,4.366 -19.145,11.393 -3.849,6.908 -3.849,15.493 0.001,22.404 l 282.669,507.567 c 3.912,7.027 11.248,11.392 19.144,11.392 7.897,0 15.233,-4.365 19.147,-11.392 L 584.033,34.605 c 2.207,-3.597 3.371,-7.746 3.371,-12.011 0,-12.288 -9.621,-22.318 -21.549,-22.588 L 565.81,0 h -0.461 z"
             style="fill:none;stroke:#231f20;stroke-width:2;stroke-linecap:butt;stroke-linejoin:miter;stroke-miterlimit:10;stroke-dasharray:none;stroke-opacity:1"
             id="path1016" />
        </g>
        <g
           id="g1018"
           transform="translate(289.5301,105.1048)">
          <path
             d="m 0,0 c -12,4.5 -35.25,19.501 -39.751,39 -7.291,31.596 6.539,57.977 -25.109,80.234 8.696,4.649 31.157,-1.658 43.838,-19.588 10.982,33.002 -27.183,63.766 -26.447,62.42 19.565,6.64 32.606,-6.972 47.461,-17.595 11.959,24.9 -20.289,55.447 -25.724,62.751 16.667,3.65 37.683,-7.306 43.84,-20.255 15.581,15.938 -12.746,41.263 9.059,63.747 4.348,-38.844 23.626,-39.59 36.232,-70.388 12.041,-0.168 14.428,19.868 10.851,39.177 23.455,-30.965 21.056,-65.058 12.722,-85.976 17.394,7.969 31.194,32.063 29.021,43.353 17.754,-22.577 2.565,-75.513 -11.926,-87.796 14.31,1.819 27.059,8.529 31.405,13.843 C 144.893,57.769 124.995,16.977 81.516,3.027 38.038,-10.918 13.994,-5.249 0,0"
             style="fill:#231f20;fill-opacity:1;fill-rule:nonzero;stroke:none"
             id="path1020" />
        </g>
        <g
           id="g1022"
           transform="translate(289.5301,105.1048)">
          <path
             d="m 0,0 c -12,4.5 -35.25,19.501 -39.751,39 -7.291,31.596 6.539,57.977 -25.109,80.234 8.696,4.649 31.157,-1.658 43.838,-19.588 10.982,33.002 -27.183,63.766 -26.447,62.42 19.565,6.64 32.606,-6.972 47.461,-17.595 11.959,24.9 -20.289,55.447 -25.724,62.751 16.667,3.65 37.683,-7.306 43.84,-20.255 15.581,15.938 -12.746,41.263 9.059,63.747 4.348,-38.844 23.626,-39.59 36.232,-70.388 12.041,-0.168 14.428,19.868 10.851,39.177 23.455,-30.965 21.056,-65.058 12.722,-85.976 17.394,7.969 31.194,32.063 29.021,43.353 17.754,-22.577 2.565,-75.513 -11.926,-87.796 14.31,1.819 27.059,8.529 31.405,13.843 C 144.893,57.769 124.995,16.977 81.516,3.027 38.038,-10.918 13.994,-5.249 0,0 Z"
             style="fill:none;stroke:#231f20;stroke-width:2.25;stroke-linecap:butt;stroke-linejoin:round;stroke-miterlimit:10;stroke-dasharray:none;stroke-opacity:1"
             id="path1024" />
        </g>
        <g
           id="g1026"
           transform="translate(339.7791,208.4544)">
          <path
             d="m 0,0 c -13.04,-15.091 -22.521,-39.737 -23.25,-57.002 -10.505,14.61 -16.227,22.382 -19.125,44.627 -7.5,-30.752 -11.565,-51.318 0.75,-68.249 -20.65,0.661 -23.39,15.073 -24.113,30.015 -7.969,-19.925 8.6,-53.118 36.863,-57.768 28.259,-4.646 66.927,18.672 71.998,41.25 -11.428,-7.976 -14.637,-8.779 -28.498,-5.246 11.232,8.299 2.301,21.832 12.001,41.998 C 17.93,-39.672 10.744,-59.68 -3.749,-63 9,-49.5 -5.999,-32.998 0,0"
             style="fill:#fbbc09;fill-opacity:1;fill-rule:nonzero;stroke:none"
             id="path1028" />
        </g>
        <g
           id="g1030"
           transform="translate(339.7791,208.4544)">
          <path
             d="m 0,0 c -13.04,-15.091 -22.521,-39.737 -23.25,-57.002 -10.505,14.61 -16.227,22.382 -19.125,44.627 -7.5,-30.752 -11.565,-51.318 0.75,-68.249 -20.65,0.661 -23.39,15.073 -24.113,30.015 -7.969,-19.925 8.6,-53.118 36.863,-57.768 28.259,-4.646 66.927,18.672 71.998,41.25 -11.428,-7.976 -14.637,-8.779 -28.498,-5.246 11.232,8.299 2.301,21.832 12.001,41.998 C 17.93,-39.672 10.744,-59.68 -3.749,-63 9,-49.5 -5.999,-32.998 0,0 Z"
             style="fill:none;stroke:#fbbc09;stroke-width:4.318;stroke-linecap:butt;stroke-linejoin:miter;stroke-miterlimit:10;stroke-dasharray:none;stroke-opacity:1"
             id="path1032" />
        </g>
        <g
           id="g1034"
           transform="translate(250.1326,84.7357)">
          <path
             d="M 0,0 H 151.702"
             style="fill:#ffffff;fill-opacity:1;fill-rule:nonzero;stroke:#231f20;stroke-width:18;stroke-linecap:round;stroke-linejoin:miter;stroke-miterlimit:10;stroke-dasharray:none;stroke-opacity:1"
             id="path1036" />
        </g>
      </g>
    </g>
  </g>
</svg>
