<?xml version="1.0" encoding="UTF-8" standalone="no"?>
<!-- Created with Inkscape (http://www.inkscape.org/) -->

<svg
   version="1.1"
   id="svg1573"
   width="869.29199"
   height="793.70135"
   viewBox="0 0 869.29199 793.70135"
   sodipodi:docname="produit-corrosif.svg"
   inkscape:version="1.2.2 (732a01da63, 2022-12-09)"
   xmlns:inkscape="http://www.inkscape.org/namespaces/inkscape"
   xmlns:sodipodi="http://sodipodi.sourceforge.net/DTD/sodipodi-0.dtd"
   xmlns="http://www.w3.org/2000/svg"
   xmlns:svg="http://www.w3.org/2000/svg">
  <defs
     id="defs1577">
    <clipPath
       clipPathUnits="userSpaceOnUse"
       id="clipPath1593">
      <path
         d="M 0,595.276 H 651.969 V 0 H 0 Z"
         id="path1591" />
    </clipPath>
    <clipPath
       clipPathUnits="userSpaceOnUse"
       id="clipPath1609">
      <path
         d="M 0,595.276 H 651.969 V 0 H 0 Z"
         id="path1607" />
    </clipPath>
    <clipPath
       clipPathUnits="userSpaceOnUse"
       id="clipPath1685">
      <path
         d="M 0,595.276 H 651.969 V 0 H 0 Z"
         id="path1683" />
    </clipPath>
  </defs>
  <sodipodi:namedview
     id="namedview1575"
     pagecolor="#ffffff"
     bordercolor="#000000"
     borderopacity="0.25"
     inkscape:showpageshadow="2"
     inkscape:pageopacity="0.0"
     inkscape:pagecheckerboard="0"
     inkscape:deskcolor="#d1d1d1"
     showgrid="false"
     inkscape:zoom="1.0495131"
     inkscape:cx="434.48718"
     inkscape:cy="397.8035"
     inkscape:window-width="1920"
     inkscape:window-height="991"
     inkscape:window-x="2391"
     inkscape:window-y="-9"
     inkscape:window-maximized="1"
     inkscape:current-layer="g1581">
    <inkscape:page
       x="0"
       y="0"
       id="page1579"
       width="869.29199"
       height="793.70135" />
  </sodipodi:namedview>
  <g
     id="g1581"
     inkscape:groupmode="layer"
     inkscape:label="Page 1"
     transform="matrix(1.3333333,0,0,-1.3333333,0,793.70133)">
    <g
       id="g1583"
       transform="translate(43.3045,46.0355)">
      <path
         d="M 0,0 282.67,507.569 565.339,0 Z"
         style="fill:#fbbc09;fill-opacity:1;fill-rule:nonzero;stroke:none"
         id="path1585" />
    </g>
    <g
       id="g1587">
      <g
         id="g1589"
         clip-path="url(#clipPath1593)">
        <g
           id="g1595"
           transform="translate(69.2132,61.5423)">
          <path
             d="M 0,0 H 513.523 L 256.761,461.048 Z m 539.451,-31.014 c -0.007,-0.001 -0.014,-0.001 -0.021,0 H -25.909 c -5.343,0 -10.282,2.956 -12.953,7.754 -2.673,4.797 -2.673,10.709 0,15.507 l 282.67,507.568 c 2.671,4.798 7.609,7.754 12.953,7.754 5.345,0 10.282,-2.956 12.954,-7.754 l 282.297,-506.9 c 1.516,-2.425 2.397,-5.317 2.397,-8.422 0,-8.564 -6.697,-15.507 -14.958,-15.507"
             style="fill:#231f20;fill-opacity:1;fill-rule:nonzero;stroke:none"
             id="path1597" />
        </g>
        <g
           id="g1599"
           transform="translate(69.2132,61.5423)">
          <path
             d="M 0,0 H 513.523 L 256.761,461.048 Z m 539.451,-31.014 c -0.007,-0.001 -0.014,-0.001 -0.021,0 H -25.909 c -5.343,0 -10.282,2.956 -12.953,7.754 -2.673,4.797 -2.673,10.709 0,15.507 l 282.67,507.568 c 2.671,4.798 7.609,7.754 12.953,7.754 5.345,0 10.282,-2.956 12.954,-7.754 l 282.297,-506.9 c 1.516,-2.425 2.397,-5.317 2.397,-8.422 0,-8.564 -6.697,-15.507 -14.958,-15.507 z"
             style="fill:none;stroke:#231f20;stroke-width:2.538;stroke-linecap:butt;stroke-linejoin:miter;stroke-miterlimit:10;stroke-dasharray:none;stroke-opacity:1"
             id="path1601" />
        </g>
      </g>
    </g>
    <g
       id="g1603">
      <g
         id="g1605"
         clip-path="url(#clipPath1609)">
        <g
           id="g1611"
           transform="translate(322.1404,251.0218)">
          <path
             d="M 0,0 -102.329,18.044 -106.937,-8.084 -4.6,-26.129 c 7.215,-1.272 14.097,3.546 15.37,10.76 C 12.041,-8.153 7.223,-1.273 0.008,-0.001 0.006,-0.001 0.003,0 0,0 Z"
             style="fill:none;stroke:#231f20;stroke-width:2.674;stroke-linecap:butt;stroke-linejoin:miter;stroke-miterlimit:10;stroke-dasharray:none;stroke-opacity:1"
             id="path1613" />
        </g>
        <g
           id="g1615"
           transform="translate(317.0145,226.0599)">
          <path
             d="m 0,0 c 7.358,-1.297 14.378,3.617 15.676,10.977 0.391,2.218 0.209,4.402 -0.425,6.411 H -98.601 Z"
             style="fill:#231f20;fill-opacity:1;fill-rule:nonzero;stroke:none"
             id="path1617" />
        </g>
        <g
           id="g1619"
           transform="translate(213.7444,220.8841)">
          <path
             d="m 0,0 c 0.557,-7.298 -9.169,-16.164 -9.169,-22.404 0,-5.593 5.172,-8.394 9.352,-7.851 4.237,0.55 7.236,4.145 7.243,10.674 C 7.437,-10.727 0,0 0,0"
             style="fill:#231f20;fill-opacity:1;fill-rule:nonzero;stroke:none"
             id="path1621" />
        </g>
        <g
           id="g1623"
           transform="translate(213.7444,220.8841)">
          <path
             d="m 0,0 c 0.557,-7.298 -9.169,-16.164 -9.169,-22.404 0,-5.593 5.172,-8.394 9.352,-7.851 4.237,0.55 7.236,4.145 7.243,10.674 C 7.437,-10.727 0,0 0,0 Z"
             style="fill:none;stroke:#231f20;stroke-width:0.356;stroke-linecap:round;stroke-linejoin:round;stroke-miterlimit:10;stroke-dasharray:none;stroke-opacity:1"
             id="path1625" />
        </g>
        <g
           id="g1627"
           transform="translate(213.7444,170.3821)">
          <path
             d="m 0,0 c 0.557,-7.299 -9.169,-16.163 -9.169,-22.404 0,-5.594 5.172,-8.394 9.352,-7.852 4.237,0.55 7.236,4.145 7.243,10.676 C 7.437,-10.729 0,0 0,0"
             style="fill:#231f20;fill-opacity:1;fill-rule:nonzero;stroke:none"
             id="path1629" />
        </g>
        <g
           id="g1631"
           transform="translate(213.7444,170.3821)">
          <path
             d="m 0,0 c 0.557,-7.299 -9.169,-16.163 -9.169,-22.404 0,-5.594 5.172,-8.394 9.352,-7.852 4.237,0.55 7.236,4.145 7.243,10.676 C 7.437,-10.729 0,0 0,0 Z"
             style="fill:none;stroke:#231f20;stroke-width:0.356;stroke-linecap:round;stroke-linejoin:round;stroke-miterlimit:10;stroke-dasharray:none;stroke-opacity:1"
             id="path1633" />
        </g>
        <g
           id="g1635"
           transform="translate(311.9764,316.7586)">
          <path
             d="M 0,0 102.33,18.043 106.937,-8.085 4.601,-26.13 c -7.216,-1.272 -14.098,3.545 -15.37,10.761 -1.271,7.215 3.547,14.096 10.762,15.368 0.002,0 0.004,0 0.007,0.001 z"
             style="fill:none;stroke:#231f20;stroke-width:2.674;stroke-linecap:butt;stroke-linejoin:miter;stroke-miterlimit:10;stroke-dasharray:none;stroke-opacity:1"
             id="path1637" />
        </g>
        <g
           id="g1639"
           transform="translate(317.1033,291.7972)">
          <path
             d="m 0,0 c -7.36,-1.297 -14.379,3.617 -15.677,10.977 -0.391,2.217 -0.209,4.401 0.425,6.41 H 98.599 Z"
             style="fill:#231f20;fill-opacity:1;fill-rule:nonzero;stroke:none"
             id="path1641" />
        </g>
        <g
           id="g1643"
           transform="translate(420.3729,286.6204)">
          <path
             d="m 0,0 c -0.558,-7.299 9.168,-16.164 9.168,-22.404 0,-5.593 -5.171,-8.395 -9.353,-7.852 -4.236,0.551 -7.235,4.145 -7.242,10.676 C -7.439,-10.727 0,0 0,0"
             style="fill:#231f20;fill-opacity:1;fill-rule:nonzero;stroke:none"
             id="path1645" />
        </g>
        <g
           id="g1647"
           transform="translate(420.3729,286.6204)">
          <path
             d="m 0,0 c -0.558,-7.299 9.168,-16.164 9.168,-22.404 0,-5.593 -5.171,-8.395 -9.353,-7.852 -4.236,0.551 -7.235,4.145 -7.242,10.676 C -7.439,-10.727 0,0 0,0 Z"
             style="fill:none;stroke:#231f20;stroke-width:0.356;stroke-linecap:round;stroke-linejoin:round;stroke-miterlimit:10;stroke-dasharray:none;stroke-opacity:1"
             id="path1649" />
        </g>
        <g
           id="g1651"
           transform="translate(420.3729,236.1194)">
          <path
             d="m 0,0 c -0.558,-7.3 9.168,-16.165 9.168,-22.405 0,-5.594 -5.171,-8.394 -9.353,-7.852 -4.236,0.549 -7.235,4.144 -7.242,10.675 C -7.439,-10.729 0,0 0,0"
             style="fill:#231f20;fill-opacity:1;fill-rule:nonzero;stroke:none"
             id="path1653" />
        </g>
        <g
           id="g1655"
           transform="translate(420.3729,236.1194)">
          <path
             d="m 0,0 c -0.558,-7.3 9.168,-16.165 9.168,-22.405 0,-5.594 -5.171,-8.394 -9.353,-7.852 -4.236,0.549 -7.235,4.144 -7.242,10.675 C -7.439,-10.729 0,0 0,0 Z"
             style="fill:none;stroke:#231f20;stroke-width:0.356;stroke-linecap:round;stroke-linejoin:round;stroke-miterlimit:10;stroke-dasharray:none;stroke-opacity:1"
             id="path1657" />
        </g>
        <g
           id="g1659"
           transform="translate(265.6209,125.0501)">
          <path
             d="m 0,0 h -36.407 c 0.003,-0.005 0.013,-0.018 0.013,-0.018 -7.404,-3.051 0.187,-12.834 -8.47,-14.587 -2.136,-0.432 -3.168,0.279 -5.647,0.943 -2.619,-3.708 -5.471,-7.9 -11.428,-4.319 -0.735,1.077 -0.148,3.134 -1.596,3.231 -2.03,0.101 -1.148,1.962 -2.618,1.815 -1.929,-0.045 -2.694,1.37 -1.768,3.039 -1.592,3.425 -2.714,7.318 -5.174,9.878 0.017,0.005 0.032,0.011 0.049,0.018 h -71.653 c -1.047,0 -1.896,-0.85 -1.896,-1.897 v -30.674 c 0,-1.047 0.849,-1.896 1.896,-1.896 H 0 c 1.046,0 1.896,0.849 1.896,1.896 V -1.897 C 1.896,-0.85 1.046,0 0,0"
             style="fill:#231f20;fill-opacity:1;fill-rule:nonzero;stroke:none"
             id="path1661" />
        </g>
        <g
           id="g1663"
           transform="translate(265.6209,125.0501)">
          <path
             d="m 0,0 h -36.407 c 0.003,-0.005 0.013,-0.018 0.013,-0.018 -7.404,-3.051 0.187,-12.834 -8.47,-14.587 -2.136,-0.432 -3.168,0.279 -5.647,0.943 -2.619,-3.708 -5.471,-7.9 -11.428,-4.319 -0.735,1.077 -0.148,3.134 -1.596,3.231 -2.03,0.101 -1.148,1.962 -2.618,1.815 -1.929,-0.045 -2.694,1.37 -1.768,3.039 -1.592,3.425 -2.714,7.318 -5.174,9.878 0.017,0.005 0.032,0.011 0.049,0.018 h -71.653 c -1.047,0 -1.896,-0.85 -1.896,-1.897 v -30.674 c 0,-1.047 0.849,-1.896 1.896,-1.896 H 0 c 1.046,0 1.896,0.849 1.896,1.896 V -1.897 C 1.896,-0.85 1.046,0 0,0 Z"
             style="fill:none;stroke:#231f20;stroke-width:0.356;stroke-linecap:round;stroke-linejoin:round;stroke-miterlimit:10;stroke-dasharray:none;stroke-opacity:1"
             id="path1665" />
        </g>
        <g
           id="g1667"
           transform="translate(485.7908,165.0823)">
          <path
             d="m 0,0 c -13.771,17.624 -18.819,27.337 -43.054,27.337 -1.603,-0.016 -3.125,-0.039 -4.588,-0.065 -0.879,-1.85 -1.612,-3.846 -2.478,-5.709 0.928,-1.668 0.161,-3.084 -1.767,-3.04 -1.47,0.147 -0.588,-1.714 -2.619,-1.814 -1.448,-0.096 -0.86,-2.154 -1.595,-3.231 -5.958,-3.582 -8.808,0.61 -11.428,4.319 -2.478,-0.664 -3.511,-1.374 -5.648,-0.943 -5.673,1.15 -4.369,5.746 -4.878,9.637 -5.217,-0.039 -10.978,0.041 -18.317,0.345 -11.764,0.486 -13.441,-0.759 -13.529,-5.739 -0.197,-10.995 9.208,-16.762 14.964,-16.762 h 48.988 l -0.436,-2.331 h -104.336 c -0.005,0 -0.008,10e-4 -0.012,10e-4 -5.757,0 -10.424,-4.667 -10.424,-10.423 0,-5.757 4.667,-10.424 10.424,-10.424 h 69.236 v -2.191 h -94.902 -0.013 c -5.757,0 -10.424,-4.667 -10.424,-10.423 0,-5.757 4.667,-10.423 10.424,-10.423 h 94.915 v -2.193 h -79.661 c -0.005,0 -0.009,0.001 -0.014,0.001 -5.756,0 -10.423,-4.668 -10.423,-10.424 0,-5.757 4.667,-10.423 10.423,-10.423 h 91.041 v -2.192 h -58.431 -0.012 c -5.233,0 -9.475,-4.243 -9.475,-9.477 0,-5.232 4.242,-9.475 9.475,-9.475 H 32.433 V -7.991 C 32.433,-7.991 8.981,-11.495 0,0"
             style="fill:#231f20;fill-opacity:1;fill-rule:nonzero;stroke:none"
             id="path1669" />
        </g>
        <g
           id="g1671"
           transform="translate(485.7908,165.0823)">
          <path
             d="m 0,0 c -13.771,17.624 -18.819,27.337 -43.054,27.337 -1.603,-0.016 -3.125,-0.039 -4.588,-0.065 -0.879,-1.85 -1.612,-3.846 -2.478,-5.709 0.928,-1.668 0.161,-3.084 -1.767,-3.04 -1.47,0.147 -0.588,-1.714 -2.619,-1.814 -1.448,-0.096 -0.86,-2.154 -1.595,-3.231 -5.958,-3.582 -8.808,0.61 -11.428,4.319 -2.478,-0.664 -3.511,-1.374 -5.648,-0.943 -5.673,1.15 -4.369,5.746 -4.878,9.637 -5.217,-0.039 -10.978,0.041 -18.317,0.345 -11.764,0.486 -13.441,-0.759 -13.529,-5.739 -0.197,-10.995 9.208,-16.762 14.964,-16.762 h 48.988 l -0.436,-2.331 h -104.336 c -0.005,0 -0.008,10e-4 -0.012,10e-4 -5.757,0 -10.424,-4.667 -10.424,-10.423 0,-5.757 4.667,-10.424 10.424,-10.424 h 69.236 v -2.191 h -94.902 -0.013 c -5.757,0 -10.424,-4.667 -10.424,-10.423 0,-5.757 4.667,-10.423 10.424,-10.423 h 94.915 v -2.193 h -79.661 c -0.005,0 -0.009,0.001 -0.014,0.001 -5.756,0 -10.423,-4.668 -10.423,-10.424 0,-5.757 4.667,-10.423 10.423,-10.423 h 91.041 v -2.192 h -58.431 -0.012 c -5.233,0 -9.475,-4.243 -9.475,-9.477 0,-5.232 4.242,-9.475 9.475,-9.475 H 32.433 V -7.991 C 32.433,-7.991 8.981,-11.495 0,0 Z"
             style="fill:none;stroke:#fbbc09;stroke-width:0.669;stroke-linecap:butt;stroke-linejoin:round;stroke-miterlimit:10;stroke-dasharray:none;stroke-opacity:1"
             id="path1673" />
        </g>
        <g
           id="g1675"
           transform="translate(439.5008,168.347)">
          <path
             d="M 0,0 C -0.002,-17.501 10.231,-44.066 29.737,-44.066"
             style="fill:none;stroke:#fbbc09;stroke-width:2;stroke-linecap:butt;stroke-linejoin:miter;stroke-miterlimit:10;stroke-dasharray:none;stroke-opacity:1"
             id="path1677" />
        </g>
      </g>
    </g>
    <g
       id="g1679">
      <g
         id="g1681"
         clip-path="url(#clipPath1685)">
        <g
           id="g1687"
           transform="translate(43.304,23.2601)">
          <path
             d="m 0,0 c -7.897,0 -15.233,4.366 -19.145,11.393 -3.849,6.908 -3.849,15.493 0.001,22.404 l 282.669,507.567 c 3.912,7.027 11.248,11.392 19.144,11.392 7.897,0 15.233,-4.365 19.147,-11.392 L 584.033,34.605 c 2.207,-3.597 3.371,-7.746 3.371,-12.011 0,-12.288 -9.621,-22.318 -21.549,-22.588 L 565.81,0 h -0.461 z"
             style="fill:none;stroke:#231f20;stroke-width:2;stroke-linecap:butt;stroke-linejoin:miter;stroke-miterlimit:10;stroke-dasharray:none;stroke-opacity:1"
             id="path1689" />
        </g>
      </g>
    </g>
  </g>
</svg>
